<svg xmlns="http://www.w3.org/2000/svg" version="1.1" xmlns:xlink="http://www.w3.org/1999/xlink" xmlns:svgjs="http://svgjs.dev/svgjs" width="128" height="128" viewBox="0 0 128 128"><g transform="matrix(0.8046875,0,0,0.8046875,12.333870967741937,12.333870967741937)"><svg viewBox="0 0 155 155" data-background-color="#000000" preserveAspectRatio="xMidYMid meet" height="128" width="128" xmlns="http://www.w3.org/2000/svg" xmlns:xlink="http://www.w3.org/1999/xlink"><g id="tight-bounds" transform="matrix(1,0,0,1,0.25,0.25)"><svg viewBox="0 0 154.5 154.5" height="154.5" width="154.5"><rect width="154.5" height="154.5" fill="url(#0c546497-3126-4f0b-a464-c5a9144bbb19)" mask="url(#74b5f4cd-640f-4ffa-a36e-fcb92b46d1cd)" data-fill-palette-color="tertiary"></rect><g><svg></svg></g><g><svg viewBox="0 0 154.5 154.5" height="154.5" width="154.5"><mask id="SvgjsMask1417"><rect width="154.5" height="154.5" fill="white"></rect><g transform="matrix(1,0,0,1,48.53411678200692,43.83165)" id="clone"><svg viewBox="0 0 57.431766435986155 66.8367" height="66.8367" width="57.431766435986155"><g><svg viewBox="0 0 57.431766435986155 66.8367" height="66.8367" width="57.431766435986155"><g><svg viewBox="0 0 57.431766435986155 66.8367" height="66.8367" width="57.431766435986155"><g id="SvgjsG1416"><svg viewBox="0 0 57.431766435986155 66.8367" height="66.8367" width="57.431766435986155" id="SvgjsSvg1415"><g><svg viewBox="0 0 57.431766435986155 66.8367" height="66.8367" width="57.431766435986155"><g transform="matrix(1,0,0,1,0,0)"><svg width="57.431766435986155" viewBox="-1.5 -41.05 38.25 44.35" height="66.8367" data-palette-color="url(#640b55d4-113d-434e-b930-9fdab031f942)"><path d="M16.5 0.3L16.5 0.3Q8.75 0.3 5.13-3.65 1.5-7.6 1.5-14.08 1.5-20.55 3.73-25.88 5.95-31.2 10.35-34.63 14.75-38.05 19.88-38.05 25-38.05 27.93-35.58 30.85-33.1 30.85-28.93 30.85-24.75 28.28-22 25.7-19.25 22.25-19.25 18.8-19.25 16.9-20.78 15-22.3 15-24.03 15-25.75 16.38-26.73 17.75-27.7 20.4-27.7L20.4-27.7Q19.75-27.05 19.75-25.98 19.75-24.9 20.4-24.1 21.05-23.3 22.4-23.3 23.75-23.3 25.1-24.73 26.45-26.15 26.45-28.5 26.45-30.85 25.03-32.25 23.6-33.65 21-33.65L21-33.65Q17.6-33.65 14.83-30.9 12.05-28.15 10.6-23.9 9.15-19.65 9.15-14.95L9.15-14.95Q9.15-10.9 10.9-7.8L10.9-7.8Q11.8-6.2 13.58-5.25 15.35-4.3 17.75-4.3L17.75-4.3Q21.85-4.3 25.65-6.93 29.45-9.55 32.05-13.7L32.05-13.7 33.75-10.65Q30.8-5.85 26.35-2.78 21.9 0.3 16.5 0.3Z" opacity="1" transform="matrix(1,0,0,1,0,0)" fill="black" class="wordmark-text-0" id="SvgjsPath1414" stroke-width="5" stroke="black" stroke-linejoin="round"></path></svg></g></svg></g></svg></g></svg></g></svg></g></svg></g></mask><g transform="matrix(1,0,0,1,48.53411678200692,43.83165)"><svg viewBox="0 0 57.431766435986155 66.8367" height="66.8367" width="57.431766435986155"><g><svg viewBox="0 0 57.431766435986155 66.8367" height="66.8367" width="57.431766435986155"><g><svg viewBox="0 0 57.431766435986155 66.8367" height="66.8367" width="57.431766435986155"><g id="textblocktransform"><svg viewBox="0 0 57.431766435986155 66.8367" height="66.8367" width="57.431766435986155" id="textblock"><g><svg viewBox="0 0 57.431766435986155 66.8367" height="66.8367" width="57.431766435986155"><g transform="matrix(1,0,0,1,0,0)"><svg width="57.431766435986155" viewBox="-1.5 -41.05 38.25 44.35" height="66.8367" data-palette-color="url(#640b55d4-113d-434e-b930-9fdab031f942)"></svg></g></svg></g></svg></g></svg></g></svg></g></svg></g><g><path d="M0 154.5v-154.5h154.5v154.5zM149.168 149.168v-143.836h-143.836v143.836z" fill="url(#0c546497-3126-4f0b-a464-c5a9144bbb19)" fill-rule="nonzero" stroke="none" stroke-width="1" stroke-linecap="butt" stroke-linejoin="miter" stroke-miterlimit="10" stroke-dasharray="" stroke-dashoffset="0" font-family="none" font-weight="none" font-size="none" text-anchor="none" style="mix-blend-mode: normal" data-fill-palette-color="tertiary"></path></g></svg></g><defs></defs><mask id="acd7135b-473f-42de-b6d3-9963ba9aa859"><g id="SvgjsG1426"><svg viewBox="0 0 154.5 154.5" height="154.5" width="154.5"><g><svg></svg></g><g><svg viewBox="0 0 154.5 154.5" height="154.5" width="154.5"><mask id="SvgjsMask1425"><rect width="154.5" height="154.5" fill="black"></rect><g transform="matrix(1,0,0,1,48.53411678200692,43.83165)" id="SvgjsG1424"><svg viewBox="0 0 57.431766435986155 66.8367" height="66.8367" width="57.431766435986155"><g><svg viewBox="0 0 57.431766435986155 66.8367" height="66.8367" width="57.431766435986155"><g><svg viewBox="0 0 57.431766435986155 66.8367" height="66.8367" width="57.431766435986155"><g id="SvgjsG1423"><svg viewBox="0 0 57.431766435986155 66.8367" height="66.8367" width="57.431766435986155" id="SvgjsSvg1422"><g><svg viewBox="0 0 57.431766435986155 66.8367" height="66.8367" width="57.431766435986155"><g transform="matrix(1,0,0,1,0,0)"><svg width="57.431766435986155" viewBox="-1.5 -41.05 38.25 44.35" height="66.8367" data-palette-color="url(#640b55d4-113d-434e-b930-9fdab031f942)"><path d="M16.5 0.3L16.5 0.3Q8.75 0.3 5.13-3.65 1.5-7.6 1.5-14.08 1.5-20.55 3.73-25.88 5.95-31.2 10.35-34.63 14.75-38.05 19.88-38.05 25-38.05 27.93-35.58 30.85-33.1 30.85-28.93 30.85-24.75 28.28-22 25.7-19.25 22.25-19.25 18.8-19.25 16.9-20.78 15-22.3 15-24.03 15-25.75 16.38-26.73 17.75-27.7 20.4-27.7L20.4-27.7Q19.75-27.05 19.75-25.98 19.75-24.9 20.4-24.1 21.05-23.3 22.4-23.3 23.75-23.3 25.1-24.73 26.45-26.15 26.45-28.5 26.45-30.85 25.03-32.25 23.6-33.65 21-33.65L21-33.65Q17.6-33.65 14.83-30.9 12.05-28.15 10.6-23.9 9.15-19.65 9.15-14.95L9.15-14.95Q9.15-10.9 10.9-7.8L10.9-7.8Q11.8-6.2 13.58-5.25 15.35-4.3 17.75-4.3L17.75-4.3Q21.85-4.3 25.65-6.93 29.45-9.55 32.05-13.7L32.05-13.7 33.75-10.65Q30.8-5.85 26.35-2.78 21.9 0.3 16.5 0.3Z" opacity="1" transform="matrix(1,0,0,1,0,0)" fill="black" class="wordmark-text-0" id="SvgjsPath1421" stroke-width="5" stroke="black" stroke-linejoin="round"></path></svg></g></svg></g></svg></g></svg></g></svg></g></svg></g></mask><g transform="matrix(1,0,0,1,48.53411678200692,43.83165)"><svg viewBox="0 0 57.431766435986155 66.8367" height="66.8367" width="57.431766435986155"><g><svg viewBox="0 0 57.431766435986155 66.8367" height="66.8367" width="57.431766435986155"><g><svg viewBox="0 0 57.431766435986155 66.8367" height="66.8367" width="57.431766435986155"><g id="SvgjsG1420"><svg viewBox="0 0 57.431766435986155 66.8367" height="66.8367" width="57.431766435986155" id="SvgjsSvg1419"><g><svg viewBox="0 0 57.431766435986155 66.8367" height="66.8367" width="57.431766435986155"><g transform="matrix(1,0,0,1,0,0)"><svg width="57.431766435986155" viewBox="-1.5 -41.05 38.25 44.35" height="66.8367" data-palette-color="url(#640b55d4-113d-434e-b930-9fdab031f942)"><path d="M16.5 0.3L16.5 0.3Q8.75 0.3 5.13-3.65 1.5-7.6 1.5-14.08 1.5-20.55 3.73-25.88 5.95-31.2 10.35-34.63 14.75-38.05 19.88-38.05 25-38.05 27.93-35.58 30.85-33.1 30.85-28.93 30.85-24.75 28.28-22 25.7-19.25 22.25-19.25 18.8-19.25 16.9-20.78 15-22.3 15-24.03 15-25.75 16.38-26.73 17.75-27.7 20.4-27.7L20.4-27.7Q19.75-27.05 19.75-25.98 19.75-24.9 20.4-24.1 21.05-23.3 22.4-23.3 23.75-23.3 25.1-24.73 26.45-26.15 26.45-28.5 26.45-30.85 25.03-32.25 23.6-33.65 21-33.65L21-33.65Q17.6-33.65 14.83-30.9 12.05-28.15 10.6-23.9 9.15-19.65 9.15-14.95L9.15-14.95Q9.15-10.9 10.9-7.8L10.9-7.8Q11.8-6.2 13.58-5.25 15.35-4.3 17.75-4.3L17.75-4.3Q21.85-4.3 25.65-6.93 29.45-9.55 32.05-13.7L32.05-13.7 33.75-10.65Q30.8-5.85 26.35-2.78 21.9 0.3 16.5 0.3Z" opacity="1" transform="matrix(1,0,0,1,0,0)" fill="white" class="wordmark-text-0" id="SvgjsPath1418"></path></svg></g></svg></g></svg></g></svg></g></svg></g></svg></g><g><path d="M0 154.5v-154.5h154.5v154.5zM149.168 149.168v-143.836h-143.836v143.836z" fill="black" fill-rule="nonzero" stroke="none" stroke-width="1" stroke-linecap="butt" stroke-linejoin="miter" stroke-miterlimit="10" stroke-dasharray="" stroke-dashoffset="0" font-family="none" font-weight="none" font-size="none" text-anchor="none" style="mix-blend-mode: normal"></path></g></svg></g><defs><mask></mask></defs></svg><rect width="154.5" height="154.5" fill="black" stroke="none" visibility="hidden"></rect></g></mask><linearGradient x1="0" x2="1" y1="0.5" y2="0.5" id="640b55d4-113d-434e-b930-9fdab031f942"><stop stop-color="#f00b51" offset="0"></stop><stop stop-color="#730062" offset="1"></stop></linearGradient><rect width="154.5" height="154.5" fill="url(#640b55d4-113d-434e-b930-9fdab031f942)" mask="url(#acd7135b-473f-42de-b6d3-9963ba9aa859)" data-fill-palette-color="primary"></rect><mask id="74b5f4cd-640f-4ffa-a36e-fcb92b46d1cd"><g id="SvgjsG1479"><svg viewBox="0 0 154.5 154.5" height="154.5" width="154.5"><g><svg></svg></g><g><svg viewBox="0 0 154.5 154.5" height="154.5" width="154.5"><mask id="SvgjsMask1478"><rect width="154.5" height="154.5" fill="black"></rect><g transform="matrix(1,0,0,1,48.53411678200692,43.83165)" id="SvgjsG1477"><svg viewBox="0 0 57.431766435986155 66.8367" height="66.8367" width="57.431766435986155"><g><svg viewBox="0 0 57.431766435986155 66.8367" height="66.8367" width="57.431766435986155"><g><svg viewBox="0 0 57.431766435986155 66.8367" height="66.8367" width="57.431766435986155"><g id="SvgjsG1476"><svg viewBox="0 0 57.431766435986155 66.8367" height="66.8367" width="57.431766435986155" id="SvgjsSvg1475"><g><svg viewBox="0 0 57.431766435986155 66.8367" height="66.8367" width="57.431766435986155"><g transform="matrix(1,0,0,1,0,0)"><svg width="57.431766435986155" viewBox="-1.5 -41.05 38.25 44.35" height="66.8367" data-palette-color="url(#640b55d4-113d-434e-b930-9fdab031f942)"><path d="M16.5 0.3L16.5 0.3Q8.75 0.3 5.13-3.65 1.5-7.6 1.5-14.08 1.5-20.55 3.73-25.88 5.95-31.2 10.35-34.63 14.75-38.05 19.88-38.05 25-38.05 27.93-35.58 30.85-33.1 30.85-28.93 30.85-24.75 28.28-22 25.7-19.25 22.25-19.25 18.8-19.25 16.9-20.78 15-22.3 15-24.03 15-25.75 16.38-26.73 17.75-27.7 20.4-27.7L20.4-27.7Q19.75-27.05 19.75-25.98 19.75-24.9 20.4-24.1 21.05-23.3 22.4-23.3 23.75-23.3 25.1-24.73 26.45-26.15 26.45-28.5 26.45-30.85 25.03-32.25 23.6-33.65 21-33.65L21-33.65Q17.6-33.65 14.83-30.9 12.05-28.15 10.6-23.9 9.15-19.65 9.15-14.95L9.15-14.95Q9.15-10.9 10.9-7.8L10.9-7.8Q11.8-6.2 13.58-5.25 15.35-4.3 17.75-4.3L17.75-4.3Q21.85-4.3 25.65-6.93 29.45-9.55 32.05-13.7L32.05-13.7 33.75-10.65Q30.8-5.85 26.35-2.78 21.9 0.3 16.5 0.3Z" opacity="1" transform="matrix(1,0,0,1,0,0)" fill="black" class="wordmark-text-0" id="SvgjsPath1474" stroke-width="5" stroke="black" stroke-linejoin="round"></path></svg></g></svg></g></svg></g></svg></g></svg></g></svg></g></mask><g transform="matrix(1,0,0,1,48.53411678200692,43.83165)"><svg viewBox="0 0 57.431766435986155 66.8367" height="66.8367" width="57.431766435986155"><g><svg viewBox="0 0 57.431766435986155 66.8367" height="66.8367" width="57.431766435986155"><g><svg viewBox="0 0 57.431766435986155 66.8367" height="66.8367" width="57.431766435986155"><g id="SvgjsG1473"><svg viewBox="0 0 57.431766435986155 66.8367" height="66.8367" width="57.431766435986155" id="SvgjsSvg1472"><g><svg viewBox="0 0 57.431766435986155 66.8367" height="66.8367" width="57.431766435986155"><g transform="matrix(1,0,0,1,0,0)"><svg width="57.431766435986155" viewBox="-1.5 -41.05 38.25 44.35" height="66.8367" data-palette-color="url(#640b55d4-113d-434e-b930-9fdab031f942)"></svg></g></svg></g></svg></g></svg></g></svg></g></svg></g><g><path d="M0 154.5v-154.5h154.5v154.5zM149.168 149.168v-143.836h-143.836v143.836z" fill="white" fill-rule="nonzero" stroke="none" stroke-width="1" stroke-linecap="butt" stroke-linejoin="miter" stroke-miterlimit="10" stroke-dasharray="" stroke-dashoffset="0" font-family="none" font-weight="none" font-size="none" text-anchor="none" style="mix-blend-mode: normal"></path></g></svg></g><defs><mask></mask></defs><mask><g id="SvgjsG1471"><svg viewBox="0 0 154.5 154.5" height="154.5" width="154.5"><g><svg></svg></g><g><svg viewBox="0 0 154.5 154.5" height="154.5" width="154.5"><mask id="SvgjsMask1470"><rect width="154.5" height="154.5" fill="black"></rect><g transform="matrix(1,0,0,1,48.53411678200692,43.83165)" id="SvgjsG1469"><svg viewBox="0 0 57.431766435986155 66.8367" height="66.8367" width="57.431766435986155"><g><svg viewBox="0 0 57.431766435986155 66.8367" height="66.8367" width="57.431766435986155"><g><svg viewBox="0 0 57.431766435986155 66.8367" height="66.8367" width="57.431766435986155"><g id="SvgjsG1468"><svg viewBox="0 0 57.431766435986155 66.8367" height="66.8367" width="57.431766435986155" id="SvgjsSvg1467"><g><svg viewBox="0 0 57.431766435986155 66.8367" height="66.8367" width="57.431766435986155"><g transform="matrix(1,0,0,1,0,0)"><svg width="57.431766435986155" viewBox="-1.5 -41.05 38.25 44.35" height="66.8367" data-palette-color="url(#640b55d4-113d-434e-b930-9fdab031f942)"><path d="M16.5 0.3L16.5 0.3Q8.75 0.3 5.13-3.65 1.5-7.6 1.5-14.08 1.5-20.55 3.73-25.88 5.95-31.2 10.35-34.63 14.75-38.05 19.88-38.05 25-38.05 27.93-35.58 30.85-33.1 30.85-28.93 30.85-24.75 28.28-22 25.7-19.25 22.25-19.25 18.8-19.25 16.9-20.78 15-22.3 15-24.03 15-25.75 16.38-26.73 17.75-27.7 20.4-27.7L20.4-27.7Q19.75-27.05 19.75-25.98 19.75-24.9 20.4-24.1 21.05-23.3 22.4-23.3 23.75-23.3 25.1-24.73 26.45-26.15 26.45-28.5 26.45-30.85 25.03-32.25 23.6-33.65 21-33.65L21-33.65Q17.6-33.65 14.83-30.9 12.05-28.15 10.6-23.9 9.15-19.65 9.15-14.95L9.15-14.95Q9.15-10.9 10.9-7.8L10.9-7.8Q11.8-6.2 13.58-5.25 15.35-4.3 17.75-4.3L17.75-4.3Q21.85-4.3 25.65-6.93 29.45-9.55 32.05-13.7L32.05-13.7 33.75-10.65Q30.8-5.85 26.35-2.78 21.9 0.3 16.5 0.3Z" opacity="1" transform="matrix(1,0,0,1,0,0)" fill="black" class="wordmark-text-0" id="SvgjsPath1466" stroke-width="5" stroke="black" stroke-linejoin="round"></path></svg></g></svg></g></svg></g></svg></g></svg></g></svg></g></mask><g transform="matrix(1,0,0,1,48.53411678200692,43.83165)"><svg viewBox="0 0 57.431766435986155 66.8367" height="66.8367" width="57.431766435986155"><g><svg viewBox="0 0 57.431766435986155 66.8367" height="66.8367" width="57.431766435986155"><g><svg viewBox="0 0 57.431766435986155 66.8367" height="66.8367" width="57.431766435986155"><g id="SvgjsG1465"><svg viewBox="0 0 57.431766435986155 66.8367" height="66.8367" width="57.431766435986155" id="SvgjsSvg1464"><g><svg viewBox="0 0 57.431766435986155 66.8367" height="66.8367" width="57.431766435986155"><g transform="matrix(1,0,0,1,0,0)"><svg width="57.431766435986155" viewBox="-1.5 -41.05 38.25 44.35" height="66.8367" data-palette-color="url(#640b55d4-113d-434e-b930-9fdab031f942)"><path d="M16.5 0.3L16.5 0.3Q8.75 0.3 5.13-3.65 1.5-7.6 1.5-14.08 1.5-20.55 3.73-25.88 5.95-31.2 10.35-34.63 14.75-38.05 19.88-38.05 25-38.05 27.93-35.58 30.85-33.1 30.85-28.93 30.85-24.75 28.28-22 25.7-19.25 22.25-19.25 18.8-19.25 16.9-20.78 15-22.3 15-24.03 15-25.75 16.38-26.73 17.75-27.7 20.4-27.7L20.4-27.7Q19.75-27.05 19.75-25.98 19.75-24.9 20.4-24.1 21.05-23.3 22.4-23.3 23.75-23.3 25.1-24.73 26.45-26.15 26.45-28.5 26.45-30.85 25.03-32.25 23.6-33.65 21-33.65L21-33.65Q17.6-33.65 14.83-30.9 12.05-28.15 10.6-23.9 9.15-19.65 9.15-14.95L9.15-14.95Q9.15-10.9 10.9-7.8L10.9-7.8Q11.8-6.2 13.58-5.25 15.35-4.3 17.75-4.3L17.75-4.3Q21.85-4.3 25.65-6.93 29.45-9.55 32.05-13.7L32.05-13.7 33.75-10.65Q30.8-5.85 26.35-2.78 21.9 0.3 16.5 0.3Z" opacity="1" transform="matrix(1,0,0,1,0,0)" fill="black" class="wordmark-text-0" id="SvgjsPath1463"></path></svg></g></svg></g></svg></g></svg></g></svg></g></svg></g><g><path d="M0 154.5v-154.5h154.5v154.5zM149.168 149.168v-143.836h-143.836v143.836z" fill="black" fill-rule="nonzero" stroke="none" stroke-width="1" stroke-linecap="butt" stroke-linejoin="miter" stroke-miterlimit="10" stroke-dasharray="" stroke-dashoffset="0" font-family="none" font-weight="none" font-size="none" text-anchor="none" style="mix-blend-mode: normal"></path></g></svg></g><defs><mask></mask></defs></svg><rect width="154.5" height="154.5" fill="black" stroke="none" visibility="hidden"></rect></g></mask></svg><rect width="154.5" height="154.5" fill="black" stroke="none" visibility="hidden"></rect></g></mask><linearGradient x1="0" x2="1" y1="0.5" y2="0.5" id="0c546497-3126-4f0b-a464-c5a9144bbb19"><stop stop-color="#f00b51" offset="0"></stop><stop stop-color="#730062" offset="1"></stop></linearGradient></svg><rect width="154.5" height="154.5" fill="none" stroke="none" visibility="hidden"></rect></g></svg></g></svg>