<svg xmlns="http://www.w3.org/2000/svg" version="1.1" xmlns:xlink="http://www.w3.org/1999/xlink" xmlns:svgjs="http://svgjs.dev/svgjs" width="2000" height="1247" viewBox="0 0 2000 1247"><g transform="matrix(1,0,0,1,-1.2121212121212466,0.5048582995952984)"><svg viewBox="0 0 396 247" data-background-color="#000000" preserveAspectRatio="xMidYMid meet" height="1247" width="2000" xmlns="http://www.w3.org/2000/svg" xmlns:xlink="http://www.w3.org/1999/xlink"><g id="tight-bounds" transform="matrix(1,0,0,1,0.2400000000000091,-0.09999999999999432)"><svg viewBox="0 0 395.52 247.2" height="247.2" width="395.52"><rect width="395.52" height="247.20000000000005" fill="url(#ad76c226-3b3a-402e-9ffe-0496afacc8a5)" mask="url(#a01a1076-ad7d-443b-8df3-9f59cdd1c707)" data-fill-palette-color="tertiary"></rect><g><svg></svg></g><g><svg viewBox="0 0 395.52 247.2" height="247.2" width="395.52"><mask id="09b11dd6-4cff-42e3-9fe2-0d188ed3b214"><rect width="395.52" height="247.2" fill="white"></rect><g transform="matrix(1,0,0,1,0,83.40290424412487)" id="clone"><svg viewBox="0 0 395.52 80.39419151175025" height="80.39419151175025" width="395.52"><g><svg viewBox="0 0 395.52 80.39419151175025" height="80.39419151175025" width="395.52"><g><svg viewBox="0 0 395.52 80.39419151175025" height="80.39419151175025" width="395.52"><g><svg viewBox="0 0 395.52 80.39419151175025" height="80.39419151175025" width="395.52"><g id="SvgjsG1134"><svg viewBox="0 0 395.52 80.39419151175025" height="80.39419151175025" width="395.52" id="SvgjsSvg1133"><g><svg viewBox="0 0 395.52 80.39419151175025" height="80.39419151175025" width="395.52"><g transform="matrix(1,0,0,1,0,0)"><svg width="395.52" viewBox="-1.5 -41.05 286.08 58.949999999999996" height="80.39419151175025" data-palette-color="url(#cc105b25-b49b-443e-949d-0a1d5c45da57)"><path d="M16.5 0.3L16.5 0.3Q8.75 0.3 5.13-3.65 1.5-7.6 1.5-14.08 1.5-20.55 3.73-25.88 5.95-31.2 10.35-34.63 14.75-38.05 19.88-38.05 25-38.05 27.93-35.58 30.85-33.1 30.85-28.93 30.85-24.75 28.28-22 25.7-19.25 22.25-19.25 18.8-19.25 16.9-20.78 15-22.3 15-24.03 15-25.75 16.38-26.73 17.75-27.7 20.4-27.7L20.4-27.7Q19.75-27.05 19.75-25.98 19.75-24.9 20.4-24.1 21.05-23.3 22.4-23.3 23.75-23.3 25.1-24.73 26.45-26.15 26.45-28.5 26.45-30.85 25.03-32.25 23.6-33.65 21-33.65L21-33.65Q17.6-33.65 14.83-30.9 12.05-28.15 10.6-23.9 9.15-19.65 9.15-14.95L9.15-14.95Q9.15-10.9 10.9-7.8L10.9-7.8Q11.8-6.2 13.58-5.25 15.35-4.3 17.75-4.3L17.75-4.3Q21.85-4.3 25.65-6.93 29.45-9.55 32.05-13.7L32.05-13.7 33.75-10.65Q30.8-5.85 26.35-2.78 21.9 0.3 16.5 0.3ZM44.05-5.7L44.05-5.7 45.25-16.75Q45.25-18.1 44.55-19 43.85-19.9 42.3-19.9 40.75-19.9 39.67-18.68 38.6-17.45 38.1-15.45L38.1-15.45Q37.75-12.6 37.05-7.13 36.35-1.65 36.15 0L36.15 0 29.5 0Q33.1-30.65 33.85-37.65L33.85-37.65Q34.9-38.05 36.7-38.05L36.7-38.05Q40.6-38.05 40.6-35.75L40.6-35.75 40.6-35.45Q39.75-27.6 38.8-21.65L38.8-21.65Q41.45-24.05 44.8-24.05 48.15-24.05 50.1-22.35 52.05-20.65 52.05-18.05L52.05-18.05Q52.05-17.35 51.75-15.45L51.75-15.45Q50.6-7.95 50.6-6.65L50.6-6.65Q50.6-4.3 52.15-4.3L52.15-4.3Q53.45-4.3 54.92-6.03 56.4-7.75 57.3-11.35L57.3-11.35Q59-9.55 59.35-8.5L59.35-8.5Q56.75 0.2 50.15 0.2L50.15 0.2Q47.05 0.2 45.55-1.7 44.05-3.6 44.05-5.7ZM77.5 0.25L77.5 0.25Q72.89 0.25 71.39-2.95L71.39-2.95Q68.8 0.3 64.72 0.3 60.64 0.3 57.87-2.45 55.09-5.2 55.09-9.7L55.09-9.7Q55.09-16.25 58.95-20.15 62.8-24.05 68.69-24.05L68.69-24.05Q68.84-24.05 69-24.05L69-24.05Q71.5-24.05 73.59-23.2L73.59-23.2Q74.94-24.05 76.87-24.05 78.8-24.05 79.64-23.55L79.64-23.55Q79.19-19.85 78.69-16.28 78.19-12.7 78-11.2L78-11.2Q77.55-7.8 77.55-6.3L77.55-6.3Q77.55-4.3 79.14-4.3L79.14-4.3Q80.39-4.3 81.8-5.98 83.19-7.65 84.25-11.25L84.25-11.25Q85.69-9.95 86.25-8.35L86.25-8.35Q84.8-3.6 82.34-1.68 79.89 0.25 77.5 0.25ZM69.44-20.15L69.44-20.15Q66.25-20.15 64.37-17.73 62.49-15.3 62.14-10.5L62.14-10.5Q62.09-10.05 62.09-9.65L62.09-9.65Q62.09-7.2 63.27-5.75 64.44-4.3 66.3-4.3L66.3-4.3Q69.44-4.3 71.05-8.75L71.05-8.75 72.25-19.55Q70.8-20.15 69.44-20.15ZM93.94-34.8L93.94-34.8Q93.94-34.5 92.59-24.05L92.59-24.05 99.94-24.05 99.94-20.2 92.09-20.2 91.94-18.95Q97.79-14.05 97.79-8.25L97.79-8.25Q97.79-3.7 95.47-1.7 93.14 0.3 89.89 0.3 86.64 0.3 85.14-1.43 83.64-3.15 83.64-5.6L83.64-5.6Q83.64-6.15 83.74-6.8L83.74-6.8 85.29-20.1 85.09-20.2 81.04-20.2Q80.99-20.7 80.99-21.83 80.99-22.95 81.44-24.05L81.44-24.05 85.74-24.05 87.34-37.65Q88.39-38.05 90.14-38.05L90.14-38.05Q93.94-38.05 93.94-34.8ZM94.44-8.3L94.44-8.3Q94.44-11.75 91.44-15.1L91.44-15.1Q90.54-7.65 90.54-6.5L90.54-6.5Q90.54-4.25 91.99-4.25L91.99-4.25Q93.04-4.25 93.74-5.23 94.44-6.2 94.44-8.3ZM113.49-5.7L113.49-5.7 114.69-16.75Q114.69-18.1 113.99-19 113.29-19.9 111.74-19.9 110.19-19.9 109.12-18.68 108.04-17.45 107.54-15.45L107.54-15.45Q107.19-12.6 106.49-7.13 105.79-1.65 105.59 0L105.59 0 98.94 0Q102.54-30.65 103.29-37.65L103.29-37.65Q104.34-38.05 106.14-38.05L106.14-38.05Q110.04-38.05 110.04-35.75L110.04-35.75 110.04-35.45Q109.19-27.6 108.24-21.65L108.24-21.65Q110.89-24.05 114.24-24.05 117.59-24.05 119.54-22.35 121.49-20.65 121.49-18.05L121.49-18.05Q121.49-17.35 121.19-15.45L121.19-15.45Q120.04-7.95 120.04-6.65L120.04-6.65Q120.04-4.3 121.59-4.3L121.59-4.3Q122.89-4.3 124.37-6.03 125.84-7.75 126.74-11.35L126.74-11.35Q128.44-9.55 128.79-8.5L128.79-8.5Q126.19 0.2 119.59 0.2L119.59 0.2Q116.49 0.2 114.99-1.7 113.49-3.6 113.49-5.7ZM146.99-23.55L146.99-23.55Q144.94-7.35 144.94-6.3L144.94-6.3Q144.94-4.3 146.39-4.3L146.39-4.3Q147.69-4.3 149.21-6.08 150.74-7.85 151.64-11.4L151.64-11.4Q153.29-9.6 153.64-8.6L153.64-8.6Q152.49-3.75 149.99-1.75 147.49 0.25 144.84 0.25L144.84 0.25Q140.49 0.25 138.99-3.1L138.99-3.1Q136.39 0.25 132.04 0.25L132.04 0.25Q128.44 0.25 126.49-1.55 124.54-3.35 124.54-6.25L124.54-6.25Q124.54-6.95 124.79-8.7L124.79-8.7Q125.94-18 126.54-23.5L126.54-23.5Q128.09-24.05 129.39-24.05 130.69-24.05 131.34-23.95 131.99-23.85 132.59-23.2 133.19-22.55 133.19-21.35L133.19-21.35 131.54-8.6Q131.44-8 131.44-7.5L131.44-7.5Q131.44-4.55 134.14-4.55L134.14-4.55Q136.64-4.55 138.29-7L138.29-7Q138.29-7.55 138.39-8.75L138.39-8.75 140.04-22.05Q140.39-22.9 141.54-23.48 142.69-24.05 144.41-24.05 146.14-24.05 146.99-23.55ZM164.79-17.5L164.79-17.5Q164.79-19.7 162.76-19.7 160.74-19.7 159.54-17.1L159.54-17.1Q164.94-12.85 164.94-7.55L164.94-7.55Q164.94-3.7 162.79-1.7 160.64 0.3 157.39 0.3 154.14 0.3 152.64-1.73 151.14-3.75 151.14-6.85L151.14-6.85Q151.14-7.8 151.19-8.25L151.19-8.25 152.94-23.5Q154.74-24.05 156.59-24.05L156.59-24.05Q159.64-24.05 159.64-21.8L159.64-21.8 159.64-21.7Q161.64-24.05 164.74-24.05L164.74-24.05Q166.99-24.05 168.24-23.03 169.49-22 169.49-20.3 169.49-18.6 168.21-17.53 166.94-16.45 164.89-16.45L164.89-16.45Q164.79-16.45 164.69-16.45L164.69-16.45Q164.79-17 164.79-17.5ZM161.69-7.8Q161.69-10.7 158.69-13.6L158.69-13.6Q157.79-6.4 157.79-6.35L157.79-6.35Q157.79-4.25 159.49-4.25L159.49-4.25Q161.69-4.25 161.69-7.8L161.69-7.8ZM192.88 0.25L192.88 0.25Q188.28 0.25 186.78-2.95L186.78-2.95Q184.18 0.3 180.11 0.3 176.03 0.3 173.26-2.45 170.48-5.2 170.48-9.7L170.48-9.7Q170.48-16.25 174.33-20.15 178.18-24.05 184.08-24.05L184.08-24.05Q184.23-24.05 184.38-24.05L184.38-24.05Q186.88-24.05 188.98-23.2L188.98-23.2Q190.33-24.05 192.26-24.05 194.18-24.05 195.03-23.55L195.03-23.55Q194.58-19.85 194.08-16.28 193.58-12.7 193.38-11.2L193.38-11.2Q192.93-7.8 192.93-6.3L192.93-6.3Q192.93-4.3 194.53-4.3L194.53-4.3Q195.78-4.3 197.18-5.98 198.58-7.65 199.63-11.25L199.63-11.25Q201.08-9.95 201.63-8.35L201.63-8.35Q200.18-3.6 197.73-1.68 195.28 0.25 192.88 0.25ZM184.83-20.15L184.83-20.15Q181.63-20.15 179.76-17.73 177.88-15.3 177.53-10.5L177.53-10.5Q177.48-10.05 177.48-9.65L177.48-9.65Q177.48-7.2 178.66-5.75 179.83-4.3 181.68-4.3L181.68-4.3Q184.83-4.3 186.43-8.75L186.43-8.75 187.63-19.55Q186.18-20.15 184.83-20.15ZM212.28-5.6L212.28-5.6 213.48-16.75Q213.48-18.1 212.78-19 212.08-19.9 210.46-19.9 208.83-19.9 207.71-18.48 206.58-17.05 206.28-14.9L206.28-14.9Q204.48-1.2 204.38 0L204.38 0 197.63 0 200.38-23.55Q202.48-24.1 203.58-24.1L203.58-24.1Q206.93-24.1 207.08-21.65L207.08-21.65Q209.53-24.05 212.96-24.05 216.38-24.05 218.33-22.35 220.28-20.65 220.28-18.05L220.28-18.05Q220.28-17.35 219.98-15.4L219.98-15.4Q218.83-7.8 218.83-6.55L218.83-6.55Q218.83-4.25 220.38-4.25L220.38-4.25Q223.78-4.25 225.53-11.35L225.53-11.35Q227.23-9.55 227.58-8.5L227.58-8.5Q224.93 0.3 218.38 0.3L218.38 0.3Q215.28 0.3 213.78-1.6 212.28-3.5 212.28-5.6ZM237.43-24.05L237.43-24.05Q240.18-24.05 242.48-23.15L242.48-23.15Q244.03-24.1 245.73-24.1 247.43-24.1 248.43-23.65L248.43-23.65 246.63-9.55Q250.33-12.4 252.23-14.75L252.23-14.75 253.68-11.7Q250.83-8.7 246.08-5.3L246.08-5.3 244.73 5.15Q244.18 9.85 241.65 12.38 239.13 14.9 235.13 14.9L235.13 14.9Q232.83 14.9 230.63 13.4L230.63 13.4Q228.33 11.8 228.33 8.25L228.33 8.25Q228.33 3.9 232.48 0.3L232.48 0.3Q228.93 0.05 226.38-2.65 223.83-5.35 223.83-9.7L223.83-9.7Q223.83-16.25 227.68-20.15 231.53-24.05 237.43-24.05ZM238.18-20.15L238.18-20.15Q234.98-20.15 233.1-17.73 231.23-15.3 230.88-10.5L230.88-10.5Q230.83-10.05 230.83-9.65L230.83-9.65Q230.83-7.2 232-5.75 233.18-4.3 235.03-4.3L235.03-4.3Q238.18-4.3 239.78-8.7L239.78-8.7 241.03-19.55Q239.48-20.15 238.18-20.15ZM232.18 7.5L232.18 7.5Q232.18 8.85 232.95 9.63 233.73 10.4 234.73 10.4L234.73 10.4Q237.53 10.4 237.98 6.85L237.98 6.85 238.83-0.65Q232.18 3.3 232.18 7.5ZM272.83 0.25L272.83 0.25Q268.23 0.25 266.73-2.95L266.73-2.95Q264.13 0.3 260.05 0.3 255.98 0.3 253.2-2.45 250.43-5.2 250.43-9.7L250.43-9.7Q250.43-16.25 254.28-20.15 258.13-24.05 264.03-24.05L264.03-24.05Q264.18-24.05 264.33-24.05L264.33-24.05Q266.83-24.05 268.93-23.2L268.93-23.2Q270.28-24.05 272.2-24.05 274.13-24.05 274.98-23.55L274.98-23.55Q274.53-19.85 274.03-16.28 273.53-12.7 273.33-11.2L273.33-11.2Q272.88-7.8 272.88-6.3L272.88-6.3Q272.88-4.3 274.48-4.3L274.48-4.3Q275.73-4.3 277.13-5.98 278.53-7.65 279.58-11.25L279.58-11.25Q281.03-9.95 281.58-8.35L281.58-8.35Q280.13-3.6 277.68-1.68 275.23 0.25 272.83 0.25ZM264.78-20.15L264.78-20.15Q261.58-20.15 259.7-17.73 257.83-15.3 257.48-10.5L257.48-10.5Q257.43-10.05 257.43-9.65L257.43-9.65Q257.43-7.2 258.6-5.75 259.78-4.3 261.63-4.3L261.63-4.3Q264.78-4.3 266.38-8.75L266.38-8.75 267.58-19.55Q266.13-20.15 264.78-20.15Z" opacity="1" transform="matrix(1,0,0,1,0,0)" fill="black" class="wordmark-text-0" id="SvgjsPath1132" stroke-width="5" stroke="black" stroke-linejoin="round"></path></svg></g></svg></g></svg></g></svg></g></svg></g></svg></g></svg></g></mask><g mask="url(#09b11dd6-4cff-42e3-9fe2-0d188ed3b214)"><g><path d="M190.508 247.2v0c-33.304 0-57.734-8.487-73.289-25.461-15.599-16.974-23.399-39.384-23.399-67.231 0-27.803 4.791-53.157 14.374-76.061 9.54-22.861 23.764-41.662 42.672-56.402 18.908-14.697 39.384-22.045 61.429-22.045 22.002 0 39.298 5.307 51.89 15.921 12.548 10.657 18.822 24.946 18.822 42.866 0 17.963-5.522 32.853-16.566 44.67-11.087 11.817-24.043 17.726-38.869 17.726-14.826 0-26.321-3.287-34.485-9.862-8.165-6.532-12.247-13.515-12.247-20.95 0-7.391 2.965-13.193 8.895-17.403 5.887-4.168 14.525-6.253 25.912-6.253v0c-2.793 2.793-4.19 6.489-4.189 11.087 0 4.641 1.397 8.68 4.189 12.118 2.793 3.438 7.09 5.157 12.892 5.157 5.801 0 11.603-3.073 17.404-9.218 5.801-6.102 8.702-14.202 8.702-24.301 0-10.099-3.051-18.156-9.153-24.172-6.145-6.016-14.804-9.024-25.977-9.024v0c-14.611 0-27.868 5.909-39.771 17.726-11.946 11.817-21.035 26.858-27.266 45.121-6.231 18.263-9.347 37.494-9.347 57.691v0c0 17.404 3.76 32.767 11.28 46.088v0c3.868 6.876 9.626 12.355 17.275 16.437 7.606 4.082 16.566 6.124 26.88 6.124v0c17.619 0 34.593-5.651 50.922-16.953 16.33-11.259 30.081-25.805 41.254-43.638v0l10.958 19.659c-12.677 20.627-28.577 37.537-47.7 50.73-19.123 13.236-40.287 19.853-63.492 19.853z" fill="url(#ad76c226-3b3a-402e-9ffe-0496afacc8a5)" fill-rule="nonzero" stroke="none" stroke-width="1" stroke-linecap="butt" stroke-linejoin="miter" stroke-miterlimit="10" stroke-dasharray="" stroke-dashoffset="0" font-family="none" font-weight="none" font-size="none" text-anchor="none" style="mix-blend-mode: normal" data-fill-palette-color="tertiary"></path></g></g><g transform="matrix(1,0,0,1,0,83.40290424412487)"><svg viewBox="0 0 395.52 80.39419151175025" height="80.39419151175025" width="395.52"><g><svg viewBox="0 0 395.52 80.39419151175025" height="80.39419151175025" width="395.52"><g><svg viewBox="0 0 395.52 80.39419151175025" height="80.39419151175025" width="395.52"><g><svg viewBox="0 0 395.52 80.39419151175025" height="80.39419151175025" width="395.52"><g id="textblocktransform"><svg viewBox="0 0 395.52 80.39419151175025" height="80.39419151175025" width="395.52" id="textblock"><g><svg viewBox="0 0 395.52 80.39419151175025" height="80.39419151175025" width="395.52"><g transform="matrix(1,0,0,1,0,0)"><svg width="395.52" viewBox="-1.5 -41.05 286.08 58.949999999999996" height="80.39419151175025" data-palette-color="url(#cc105b25-b49b-443e-949d-0a1d5c45da57)"></svg></g></svg></g></svg></g></svg></g></svg></g></svg></g></svg></g></svg></g><defs></defs><mask id="0cb6ca5e-232f-4bfc-84a3-3adc35eb73f5"><g id="SvgjsG1144"><svg viewBox="0 0 395.52 247.2" height="247.2" width="395.52"><g><svg></svg></g><g><svg viewBox="0 0 395.52 247.2" height="247.2" width="395.52"><mask id="SvgjsMask1143"><rect width="395.52" height="247.2" fill="black"></rect><g transform="matrix(1,0,0,1,0,83.40290424412487)" id="SvgjsG1142"><svg viewBox="0 0 395.52 80.39419151175025" height="80.39419151175025" width="395.52"><g><svg viewBox="0 0 395.52 80.39419151175025" height="80.39419151175025" width="395.52"><g><svg viewBox="0 0 395.52 80.39419151175025" height="80.39419151175025" width="395.52"><g><svg viewBox="0 0 395.52 80.39419151175025" height="80.39419151175025" width="395.52"><g id="SvgjsG1141"><svg viewBox="0 0 395.52 80.39419151175025" height="80.39419151175025" width="395.52" id="SvgjsSvg1140"><g><svg viewBox="0 0 395.52 80.39419151175025" height="80.39419151175025" width="395.52"><g transform="matrix(1,0,0,1,0,0)"><svg width="395.52" viewBox="-1.5 -41.05 286.08 58.949999999999996" height="80.39419151175025" data-palette-color="url(#cc105b25-b49b-443e-949d-0a1d5c45da57)"><path d="M16.5 0.3L16.5 0.3Q8.75 0.3 5.13-3.65 1.5-7.6 1.5-14.08 1.5-20.55 3.73-25.88 5.95-31.2 10.35-34.63 14.75-38.05 19.88-38.05 25-38.05 27.93-35.58 30.85-33.1 30.85-28.93 30.85-24.75 28.28-22 25.7-19.25 22.25-19.25 18.8-19.25 16.9-20.78 15-22.3 15-24.03 15-25.75 16.38-26.73 17.75-27.7 20.4-27.7L20.4-27.7Q19.75-27.05 19.75-25.98 19.75-24.9 20.4-24.1 21.05-23.3 22.4-23.3 23.75-23.3 25.1-24.73 26.45-26.15 26.45-28.5 26.45-30.85 25.03-32.25 23.6-33.65 21-33.65L21-33.65Q17.6-33.65 14.83-30.9 12.05-28.15 10.6-23.9 9.15-19.65 9.15-14.95L9.15-14.95Q9.15-10.9 10.9-7.8L10.9-7.8Q11.8-6.2 13.58-5.25 15.35-4.3 17.75-4.3L17.75-4.3Q21.85-4.3 25.65-6.93 29.45-9.55 32.05-13.7L32.05-13.7 33.75-10.65Q30.8-5.85 26.35-2.78 21.9 0.3 16.5 0.3ZM44.05-5.7L44.05-5.7 45.25-16.75Q45.25-18.1 44.55-19 43.85-19.9 42.3-19.9 40.75-19.9 39.67-18.68 38.6-17.45 38.1-15.45L38.1-15.45Q37.75-12.6 37.05-7.13 36.35-1.65 36.15 0L36.15 0 29.5 0Q33.1-30.65 33.85-37.65L33.85-37.65Q34.9-38.05 36.7-38.05L36.7-38.05Q40.6-38.05 40.6-35.75L40.6-35.75 40.6-35.45Q39.75-27.6 38.8-21.65L38.8-21.65Q41.45-24.05 44.8-24.05 48.15-24.05 50.1-22.35 52.05-20.65 52.05-18.05L52.05-18.05Q52.05-17.35 51.75-15.45L51.75-15.45Q50.6-7.95 50.6-6.65L50.6-6.65Q50.6-4.3 52.15-4.3L52.15-4.3Q53.45-4.3 54.92-6.03 56.4-7.75 57.3-11.35L57.3-11.35Q59-9.55 59.35-8.5L59.35-8.5Q56.75 0.2 50.15 0.2L50.15 0.2Q47.05 0.2 45.55-1.7 44.05-3.6 44.05-5.7ZM77.5 0.25L77.5 0.25Q72.89 0.25 71.39-2.95L71.39-2.95Q68.8 0.3 64.72 0.3 60.64 0.3 57.87-2.45 55.09-5.2 55.09-9.7L55.09-9.7Q55.09-16.25 58.95-20.15 62.8-24.05 68.69-24.05L68.69-24.05Q68.84-24.05 69-24.05L69-24.05Q71.5-24.05 73.59-23.2L73.59-23.2Q74.94-24.05 76.87-24.05 78.8-24.05 79.64-23.55L79.64-23.55Q79.19-19.85 78.69-16.28 78.19-12.7 78-11.2L78-11.2Q77.55-7.8 77.55-6.3L77.55-6.3Q77.55-4.3 79.14-4.3L79.14-4.3Q80.39-4.3 81.8-5.98 83.19-7.65 84.25-11.25L84.25-11.25Q85.69-9.95 86.25-8.35L86.25-8.35Q84.8-3.6 82.34-1.68 79.89 0.25 77.5 0.25ZM69.44-20.15L69.44-20.15Q66.25-20.15 64.37-17.73 62.49-15.3 62.14-10.5L62.14-10.5Q62.09-10.05 62.09-9.65L62.09-9.65Q62.09-7.2 63.27-5.75 64.44-4.3 66.3-4.3L66.3-4.3Q69.44-4.3 71.05-8.75L71.05-8.75 72.25-19.55Q70.8-20.15 69.44-20.15ZM93.94-34.8L93.94-34.8Q93.94-34.5 92.59-24.05L92.59-24.05 99.94-24.05 99.94-20.2 92.09-20.2 91.94-18.95Q97.79-14.05 97.79-8.25L97.79-8.25Q97.79-3.7 95.47-1.7 93.14 0.3 89.89 0.3 86.64 0.3 85.14-1.43 83.64-3.15 83.64-5.6L83.64-5.6Q83.64-6.15 83.74-6.8L83.74-6.8 85.29-20.1 85.09-20.2 81.04-20.2Q80.99-20.7 80.99-21.83 80.99-22.95 81.44-24.05L81.44-24.05 85.74-24.05 87.34-37.65Q88.39-38.05 90.14-38.05L90.14-38.05Q93.94-38.05 93.94-34.8ZM94.44-8.3L94.44-8.3Q94.44-11.75 91.44-15.1L91.44-15.1Q90.54-7.65 90.54-6.5L90.54-6.5Q90.54-4.25 91.99-4.25L91.99-4.25Q93.04-4.25 93.74-5.23 94.44-6.2 94.44-8.3ZM113.49-5.7L113.49-5.7 114.69-16.75Q114.69-18.1 113.99-19 113.29-19.9 111.74-19.9 110.19-19.9 109.12-18.68 108.04-17.45 107.54-15.45L107.54-15.45Q107.19-12.6 106.49-7.13 105.79-1.65 105.59 0L105.59 0 98.94 0Q102.54-30.65 103.29-37.65L103.29-37.65Q104.34-38.05 106.14-38.05L106.14-38.05Q110.04-38.05 110.04-35.75L110.04-35.75 110.04-35.45Q109.19-27.6 108.24-21.65L108.24-21.65Q110.89-24.05 114.24-24.05 117.59-24.05 119.54-22.35 121.49-20.65 121.49-18.05L121.49-18.05Q121.49-17.35 121.19-15.45L121.19-15.45Q120.04-7.95 120.04-6.65L120.04-6.65Q120.04-4.3 121.59-4.3L121.59-4.3Q122.89-4.3 124.37-6.03 125.84-7.75 126.74-11.35L126.74-11.35Q128.44-9.55 128.79-8.5L128.79-8.5Q126.19 0.2 119.59 0.2L119.59 0.2Q116.49 0.2 114.99-1.7 113.49-3.6 113.49-5.7ZM146.99-23.55L146.99-23.55Q144.94-7.35 144.94-6.3L144.94-6.3Q144.94-4.3 146.39-4.3L146.39-4.3Q147.69-4.3 149.21-6.08 150.74-7.85 151.64-11.4L151.64-11.4Q153.29-9.6 153.64-8.6L153.64-8.6Q152.49-3.75 149.99-1.75 147.49 0.25 144.84 0.25L144.84 0.25Q140.49 0.25 138.99-3.1L138.99-3.1Q136.39 0.25 132.04 0.25L132.04 0.25Q128.44 0.25 126.49-1.55 124.54-3.35 124.54-6.25L124.54-6.25Q124.54-6.95 124.79-8.7L124.79-8.7Q125.94-18 126.54-23.5L126.54-23.5Q128.09-24.05 129.39-24.05 130.69-24.05 131.34-23.95 131.99-23.85 132.59-23.2 133.19-22.55 133.19-21.35L133.19-21.35 131.54-8.6Q131.44-8 131.44-7.5L131.44-7.5Q131.44-4.55 134.14-4.55L134.14-4.55Q136.64-4.55 138.29-7L138.29-7Q138.29-7.55 138.39-8.75L138.39-8.75 140.04-22.05Q140.39-22.9 141.54-23.48 142.69-24.05 144.41-24.05 146.14-24.05 146.99-23.55ZM164.79-17.5L164.79-17.5Q164.79-19.7 162.76-19.7 160.74-19.7 159.54-17.1L159.54-17.1Q164.94-12.85 164.94-7.55L164.94-7.55Q164.94-3.7 162.79-1.7 160.64 0.3 157.39 0.3 154.14 0.3 152.64-1.73 151.14-3.75 151.14-6.85L151.14-6.85Q151.14-7.8 151.19-8.25L151.19-8.25 152.94-23.5Q154.74-24.05 156.59-24.05L156.59-24.05Q159.64-24.05 159.64-21.8L159.64-21.8 159.64-21.7Q161.64-24.05 164.74-24.05L164.74-24.05Q166.99-24.05 168.24-23.03 169.49-22 169.49-20.3 169.49-18.6 168.21-17.53 166.94-16.45 164.89-16.45L164.89-16.45Q164.79-16.45 164.69-16.45L164.69-16.45Q164.79-17 164.79-17.5ZM161.69-7.8Q161.69-10.7 158.69-13.6L158.69-13.6Q157.79-6.4 157.79-6.35L157.79-6.35Q157.79-4.25 159.49-4.25L159.49-4.25Q161.69-4.25 161.69-7.8L161.69-7.8ZM192.88 0.25L192.88 0.25Q188.28 0.25 186.78-2.95L186.78-2.95Q184.18 0.3 180.11 0.3 176.03 0.3 173.26-2.45 170.48-5.2 170.48-9.7L170.48-9.7Q170.48-16.25 174.33-20.15 178.18-24.05 184.08-24.05L184.08-24.05Q184.23-24.05 184.38-24.05L184.38-24.05Q186.88-24.05 188.98-23.2L188.98-23.2Q190.33-24.05 192.26-24.05 194.18-24.05 195.03-23.55L195.03-23.55Q194.58-19.85 194.08-16.28 193.58-12.7 193.38-11.2L193.38-11.2Q192.93-7.8 192.93-6.3L192.93-6.3Q192.93-4.3 194.53-4.3L194.53-4.3Q195.78-4.3 197.18-5.98 198.58-7.65 199.63-11.25L199.63-11.25Q201.08-9.95 201.63-8.35L201.63-8.35Q200.18-3.6 197.73-1.68 195.28 0.25 192.88 0.25ZM184.83-20.15L184.83-20.15Q181.63-20.15 179.76-17.73 177.88-15.3 177.53-10.5L177.53-10.5Q177.48-10.05 177.48-9.65L177.48-9.65Q177.48-7.2 178.66-5.75 179.83-4.3 181.68-4.3L181.68-4.3Q184.83-4.3 186.43-8.75L186.43-8.75 187.63-19.55Q186.18-20.15 184.83-20.15ZM212.28-5.6L212.28-5.6 213.48-16.75Q213.48-18.1 212.78-19 212.08-19.9 210.46-19.9 208.83-19.9 207.71-18.48 206.58-17.05 206.28-14.9L206.28-14.9Q204.48-1.2 204.38 0L204.38 0 197.63 0 200.38-23.55Q202.48-24.1 203.58-24.1L203.58-24.1Q206.93-24.1 207.08-21.65L207.08-21.65Q209.53-24.05 212.96-24.05 216.38-24.05 218.33-22.35 220.28-20.65 220.28-18.05L220.28-18.05Q220.28-17.35 219.98-15.4L219.98-15.4Q218.83-7.8 218.83-6.55L218.83-6.55Q218.83-4.25 220.38-4.25L220.38-4.25Q223.78-4.25 225.53-11.35L225.53-11.35Q227.23-9.55 227.58-8.5L227.58-8.5Q224.93 0.3 218.38 0.3L218.38 0.3Q215.28 0.3 213.78-1.6 212.28-3.5 212.28-5.6ZM237.43-24.05L237.43-24.05Q240.18-24.05 242.48-23.15L242.48-23.15Q244.03-24.1 245.73-24.1 247.43-24.1 248.43-23.65L248.43-23.65 246.63-9.55Q250.33-12.4 252.23-14.75L252.23-14.75 253.68-11.7Q250.83-8.7 246.08-5.3L246.08-5.3 244.73 5.15Q244.18 9.85 241.65 12.38 239.13 14.9 235.13 14.9L235.13 14.9Q232.83 14.9 230.63 13.4L230.63 13.4Q228.33 11.8 228.33 8.25L228.33 8.25Q228.33 3.9 232.48 0.3L232.48 0.3Q228.93 0.05 226.38-2.65 223.83-5.35 223.83-9.7L223.83-9.7Q223.83-16.25 227.68-20.15 231.53-24.05 237.43-24.05ZM238.18-20.15L238.18-20.15Q234.98-20.15 233.1-17.73 231.23-15.3 230.88-10.5L230.88-10.5Q230.83-10.05 230.83-9.65L230.83-9.65Q230.83-7.2 232-5.75 233.18-4.3 235.03-4.3L235.03-4.3Q238.18-4.3 239.78-8.7L239.78-8.7 241.03-19.55Q239.48-20.15 238.18-20.15ZM232.18 7.5L232.18 7.5Q232.18 8.85 232.95 9.63 233.73 10.4 234.73 10.4L234.73 10.4Q237.53 10.4 237.98 6.85L237.98 6.85 238.83-0.65Q232.18 3.3 232.18 7.5ZM272.83 0.25L272.83 0.25Q268.23 0.25 266.73-2.95L266.73-2.95Q264.13 0.3 260.05 0.3 255.98 0.3 253.2-2.45 250.43-5.2 250.43-9.7L250.43-9.7Q250.43-16.25 254.28-20.15 258.13-24.05 264.03-24.05L264.03-24.05Q264.18-24.05 264.33-24.05L264.33-24.05Q266.83-24.05 268.93-23.2L268.93-23.2Q270.28-24.05 272.2-24.05 274.13-24.05 274.98-23.55L274.98-23.55Q274.53-19.85 274.03-16.28 273.53-12.7 273.33-11.2L273.33-11.2Q272.88-7.8 272.88-6.3L272.88-6.3Q272.88-4.3 274.48-4.3L274.48-4.3Q275.73-4.3 277.13-5.98 278.53-7.65 279.58-11.25L279.58-11.25Q281.03-9.95 281.58-8.35L281.58-8.35Q280.13-3.6 277.68-1.68 275.23 0.25 272.83 0.25ZM264.78-20.15L264.78-20.15Q261.58-20.15 259.7-17.73 257.83-15.3 257.48-10.5L257.48-10.5Q257.43-10.05 257.43-9.65L257.43-9.65Q257.43-7.2 258.6-5.75 259.78-4.3 261.63-4.3L261.63-4.3Q264.78-4.3 266.38-8.75L266.38-8.75 267.58-19.55Q266.13-20.15 264.78-20.15Z" opacity="1" transform="matrix(1,0,0,1,0,0)" fill="black" class="wordmark-text-0" id="SvgjsPath1139" stroke-width="5" stroke="black" stroke-linejoin="round"></path></svg></g></svg></g></svg></g></svg></g></svg></g></svg></g></svg></g></mask><g mask="url(#09b11dd6-4cff-42e3-9fe2-0d188ed3b214)"><g><path d="M190.508 247.2v0c-33.304 0-57.734-8.487-73.289-25.461-15.599-16.974-23.399-39.384-23.399-67.231 0-27.803 4.791-53.157 14.374-76.061 9.54-22.861 23.764-41.662 42.672-56.402 18.908-14.697 39.384-22.045 61.429-22.045 22.002 0 39.298 5.307 51.89 15.921 12.548 10.657 18.822 24.946 18.822 42.866 0 17.963-5.522 32.853-16.566 44.67-11.087 11.817-24.043 17.726-38.869 17.726-14.826 0-26.321-3.287-34.485-9.862-8.165-6.532-12.247-13.515-12.247-20.95 0-7.391 2.965-13.193 8.895-17.403 5.887-4.168 14.525-6.253 25.912-6.253v0c-2.793 2.793-4.19 6.489-4.189 11.087 0 4.641 1.397 8.68 4.189 12.118 2.793 3.438 7.09 5.157 12.892 5.157 5.801 0 11.603-3.073 17.404-9.218 5.801-6.102 8.702-14.202 8.702-24.301 0-10.099-3.051-18.156-9.153-24.172-6.145-6.016-14.804-9.024-25.977-9.024v0c-14.611 0-27.868 5.909-39.771 17.726-11.946 11.817-21.035 26.858-27.266 45.121-6.231 18.263-9.347 37.494-9.347 57.691v0c0 17.404 3.76 32.767 11.28 46.088v0c3.868 6.876 9.626 12.355 17.275 16.437 7.606 4.082 16.566 6.124 26.88 6.124v0c17.619 0 34.593-5.651 50.922-16.953 16.33-11.259 30.081-25.805 41.254-43.638v0l10.958 19.659c-12.677 20.627-28.577 37.537-47.7 50.73-19.123 13.236-40.287 19.853-63.492 19.853z" fill="black" fill-rule="nonzero" stroke="none" stroke-width="1" stroke-linecap="butt" stroke-linejoin="miter" stroke-miterlimit="10" stroke-dasharray="" stroke-dashoffset="0" font-family="none" font-weight="none" font-size="none" text-anchor="none" style="mix-blend-mode: normal"></path></g></g><g transform="matrix(1,0,0,1,0,83.40290424412487)"><svg viewBox="0 0 395.52 80.39419151175025" height="80.39419151175025" width="395.52"><g><svg viewBox="0 0 395.52 80.39419151175025" height="80.39419151175025" width="395.52"><g><svg viewBox="0 0 395.52 80.39419151175025" height="80.39419151175025" width="395.52"><g><svg viewBox="0 0 395.52 80.39419151175025" height="80.39419151175025" width="395.52"><g id="SvgjsG1138"><svg viewBox="0 0 395.52 80.39419151175025" height="80.39419151175025" width="395.52" id="SvgjsSvg1137"><g><svg viewBox="0 0 395.52 80.39419151175025" height="80.39419151175025" width="395.52"><g transform="matrix(1,0,0,1,0,0)"><svg width="395.52" viewBox="-1.5 -41.05 286.08 58.949999999999996" height="80.39419151175025" data-palette-color="url(#cc105b25-b49b-443e-949d-0a1d5c45da57)"><path d="M16.5 0.3L16.5 0.3Q8.75 0.3 5.13-3.65 1.5-7.6 1.5-14.08 1.5-20.55 3.73-25.88 5.95-31.2 10.35-34.63 14.75-38.05 19.88-38.05 25-38.05 27.93-35.58 30.85-33.1 30.85-28.93 30.85-24.75 28.28-22 25.7-19.25 22.25-19.25 18.8-19.25 16.9-20.78 15-22.3 15-24.03 15-25.75 16.38-26.73 17.75-27.7 20.4-27.7L20.4-27.7Q19.75-27.05 19.75-25.98 19.75-24.9 20.4-24.1 21.05-23.3 22.4-23.3 23.75-23.3 25.1-24.73 26.45-26.15 26.45-28.5 26.45-30.85 25.03-32.25 23.6-33.65 21-33.65L21-33.65Q17.6-33.65 14.83-30.9 12.05-28.15 10.6-23.9 9.15-19.65 9.15-14.95L9.15-14.95Q9.15-10.9 10.9-7.8L10.9-7.8Q11.8-6.2 13.58-5.25 15.35-4.3 17.75-4.3L17.75-4.3Q21.85-4.3 25.65-6.93 29.45-9.55 32.05-13.7L32.05-13.7 33.75-10.65Q30.8-5.85 26.35-2.78 21.9 0.3 16.5 0.3ZM44.05-5.7L44.05-5.7 45.25-16.75Q45.25-18.1 44.55-19 43.85-19.9 42.3-19.9 40.75-19.9 39.67-18.68 38.6-17.45 38.1-15.45L38.1-15.45Q37.75-12.6 37.05-7.13 36.35-1.65 36.15 0L36.15 0 29.5 0Q33.1-30.65 33.85-37.65L33.85-37.65Q34.9-38.05 36.7-38.05L36.7-38.05Q40.6-38.05 40.6-35.75L40.6-35.75 40.6-35.45Q39.75-27.6 38.8-21.65L38.8-21.65Q41.45-24.05 44.8-24.05 48.15-24.05 50.1-22.35 52.05-20.65 52.05-18.05L52.05-18.05Q52.05-17.35 51.75-15.45L51.75-15.45Q50.6-7.95 50.6-6.65L50.6-6.65Q50.6-4.3 52.15-4.3L52.15-4.3Q53.45-4.3 54.92-6.03 56.4-7.75 57.3-11.35L57.3-11.35Q59-9.55 59.35-8.5L59.35-8.5Q56.75 0.2 50.15 0.2L50.15 0.2Q47.05 0.2 45.55-1.7 44.05-3.6 44.05-5.7ZM77.5 0.25L77.5 0.25Q72.89 0.25 71.39-2.95L71.39-2.95Q68.8 0.3 64.72 0.3 60.64 0.3 57.87-2.45 55.09-5.2 55.09-9.7L55.09-9.7Q55.09-16.25 58.95-20.15 62.8-24.05 68.69-24.05L68.69-24.05Q68.84-24.05 69-24.05L69-24.05Q71.5-24.05 73.59-23.2L73.59-23.2Q74.94-24.05 76.87-24.05 78.8-24.05 79.64-23.55L79.64-23.55Q79.19-19.85 78.69-16.28 78.19-12.7 78-11.2L78-11.2Q77.55-7.8 77.55-6.3L77.55-6.3Q77.55-4.3 79.14-4.3L79.14-4.3Q80.39-4.3 81.8-5.98 83.19-7.65 84.25-11.25L84.25-11.25Q85.69-9.95 86.25-8.35L86.25-8.35Q84.8-3.6 82.34-1.68 79.89 0.25 77.5 0.25ZM69.44-20.15L69.44-20.15Q66.25-20.15 64.37-17.73 62.49-15.3 62.14-10.5L62.14-10.5Q62.09-10.05 62.09-9.65L62.09-9.65Q62.09-7.2 63.27-5.75 64.44-4.3 66.3-4.3L66.3-4.3Q69.44-4.3 71.05-8.75L71.05-8.75 72.25-19.55Q70.8-20.15 69.44-20.15ZM93.94-34.8L93.94-34.8Q93.94-34.5 92.59-24.05L92.59-24.05 99.94-24.05 99.94-20.2 92.09-20.2 91.94-18.95Q97.79-14.05 97.79-8.25L97.79-8.25Q97.79-3.7 95.47-1.7 93.14 0.3 89.89 0.3 86.64 0.3 85.14-1.43 83.64-3.15 83.64-5.6L83.64-5.6Q83.64-6.15 83.74-6.8L83.74-6.8 85.29-20.1 85.09-20.2 81.04-20.2Q80.99-20.7 80.99-21.83 80.99-22.95 81.44-24.05L81.44-24.05 85.74-24.05 87.34-37.65Q88.39-38.05 90.14-38.05L90.14-38.05Q93.94-38.05 93.94-34.8ZM94.44-8.3L94.44-8.3Q94.44-11.75 91.44-15.1L91.44-15.1Q90.54-7.65 90.54-6.5L90.54-6.5Q90.54-4.25 91.99-4.25L91.99-4.25Q93.04-4.25 93.74-5.23 94.44-6.2 94.44-8.3ZM113.49-5.7L113.49-5.7 114.69-16.75Q114.69-18.1 113.99-19 113.29-19.9 111.74-19.9 110.19-19.9 109.12-18.68 108.04-17.45 107.54-15.45L107.54-15.45Q107.19-12.6 106.49-7.13 105.79-1.65 105.59 0L105.59 0 98.94 0Q102.54-30.65 103.29-37.65L103.29-37.65Q104.34-38.05 106.14-38.05L106.14-38.05Q110.04-38.05 110.04-35.75L110.04-35.75 110.04-35.45Q109.19-27.6 108.24-21.65L108.24-21.65Q110.89-24.05 114.24-24.05 117.59-24.05 119.54-22.35 121.49-20.65 121.49-18.05L121.49-18.05Q121.49-17.35 121.19-15.45L121.19-15.45Q120.04-7.95 120.04-6.65L120.04-6.65Q120.04-4.3 121.59-4.3L121.59-4.3Q122.89-4.3 124.37-6.03 125.84-7.75 126.74-11.35L126.74-11.35Q128.44-9.55 128.79-8.5L128.79-8.5Q126.19 0.2 119.59 0.2L119.59 0.2Q116.49 0.2 114.99-1.7 113.49-3.6 113.49-5.7ZM146.99-23.55L146.99-23.55Q144.94-7.35 144.94-6.3L144.94-6.3Q144.94-4.3 146.39-4.3L146.39-4.3Q147.69-4.3 149.21-6.08 150.74-7.85 151.64-11.4L151.64-11.4Q153.29-9.6 153.64-8.6L153.64-8.6Q152.49-3.75 149.99-1.75 147.49 0.25 144.84 0.25L144.84 0.25Q140.49 0.25 138.99-3.1L138.99-3.1Q136.39 0.25 132.04 0.25L132.04 0.25Q128.44 0.25 126.49-1.55 124.54-3.35 124.54-6.25L124.54-6.25Q124.54-6.95 124.79-8.7L124.79-8.7Q125.94-18 126.54-23.5L126.54-23.5Q128.09-24.05 129.39-24.05 130.69-24.05 131.34-23.95 131.99-23.85 132.59-23.2 133.19-22.55 133.19-21.35L133.19-21.35 131.54-8.6Q131.44-8 131.44-7.5L131.44-7.5Q131.44-4.55 134.14-4.55L134.14-4.55Q136.64-4.55 138.29-7L138.29-7Q138.29-7.55 138.39-8.75L138.39-8.75 140.04-22.05Q140.39-22.9 141.54-23.48 142.69-24.05 144.41-24.05 146.14-24.05 146.99-23.55ZM164.79-17.5L164.79-17.5Q164.79-19.7 162.76-19.7 160.74-19.7 159.54-17.1L159.54-17.1Q164.94-12.85 164.94-7.55L164.94-7.55Q164.94-3.7 162.79-1.7 160.64 0.3 157.39 0.3 154.14 0.3 152.64-1.73 151.14-3.75 151.14-6.85L151.14-6.85Q151.14-7.8 151.19-8.25L151.19-8.25 152.94-23.5Q154.74-24.05 156.59-24.05L156.59-24.05Q159.64-24.05 159.64-21.8L159.64-21.8 159.64-21.7Q161.64-24.05 164.74-24.05L164.74-24.05Q166.99-24.05 168.24-23.03 169.49-22 169.49-20.3 169.49-18.6 168.21-17.53 166.94-16.45 164.89-16.45L164.89-16.45Q164.79-16.45 164.69-16.45L164.69-16.45Q164.79-17 164.79-17.5ZM161.69-7.8Q161.69-10.7 158.69-13.6L158.69-13.6Q157.79-6.4 157.79-6.35L157.79-6.35Q157.79-4.25 159.49-4.25L159.49-4.25Q161.69-4.25 161.69-7.8L161.69-7.8ZM192.88 0.25L192.88 0.25Q188.28 0.25 186.78-2.95L186.78-2.95Q184.18 0.3 180.11 0.3 176.03 0.3 173.26-2.45 170.48-5.2 170.48-9.7L170.48-9.7Q170.48-16.25 174.33-20.15 178.18-24.05 184.08-24.05L184.08-24.05Q184.23-24.05 184.38-24.05L184.38-24.05Q186.88-24.05 188.98-23.2L188.98-23.2Q190.33-24.05 192.26-24.05 194.18-24.05 195.03-23.55L195.03-23.55Q194.58-19.85 194.08-16.28 193.58-12.7 193.38-11.2L193.38-11.2Q192.93-7.8 192.93-6.3L192.93-6.3Q192.93-4.3 194.53-4.3L194.53-4.3Q195.78-4.3 197.18-5.98 198.58-7.65 199.63-11.25L199.63-11.25Q201.08-9.95 201.63-8.35L201.63-8.35Q200.18-3.6 197.73-1.68 195.28 0.25 192.88 0.25ZM184.83-20.15L184.83-20.15Q181.63-20.15 179.76-17.73 177.88-15.3 177.53-10.5L177.53-10.5Q177.48-10.05 177.48-9.65L177.48-9.65Q177.48-7.2 178.66-5.75 179.83-4.3 181.68-4.3L181.68-4.3Q184.83-4.3 186.43-8.75L186.43-8.75 187.63-19.55Q186.18-20.15 184.83-20.15ZM212.28-5.6L212.28-5.6 213.48-16.75Q213.48-18.1 212.78-19 212.08-19.9 210.46-19.9 208.83-19.9 207.71-18.48 206.58-17.05 206.28-14.9L206.28-14.9Q204.48-1.2 204.38 0L204.38 0 197.63 0 200.38-23.55Q202.48-24.1 203.58-24.1L203.58-24.1Q206.93-24.1 207.08-21.65L207.08-21.65Q209.53-24.05 212.96-24.05 216.38-24.05 218.33-22.35 220.28-20.65 220.28-18.05L220.28-18.05Q220.28-17.35 219.98-15.4L219.98-15.4Q218.83-7.8 218.83-6.55L218.83-6.55Q218.83-4.25 220.38-4.25L220.38-4.25Q223.78-4.25 225.53-11.35L225.53-11.35Q227.23-9.55 227.58-8.5L227.58-8.5Q224.93 0.3 218.38 0.3L218.38 0.3Q215.28 0.3 213.78-1.6 212.28-3.5 212.28-5.6ZM237.43-24.05L237.43-24.05Q240.18-24.05 242.48-23.15L242.48-23.15Q244.03-24.1 245.73-24.1 247.43-24.1 248.43-23.65L248.43-23.65 246.63-9.55Q250.33-12.4 252.23-14.75L252.23-14.75 253.68-11.7Q250.83-8.7 246.08-5.3L246.08-5.3 244.73 5.15Q244.18 9.85 241.65 12.38 239.13 14.9 235.13 14.9L235.13 14.9Q232.83 14.9 230.63 13.4L230.63 13.4Q228.33 11.8 228.33 8.25L228.33 8.25Q228.33 3.9 232.48 0.3L232.48 0.3Q228.93 0.05 226.38-2.65 223.83-5.35 223.83-9.7L223.83-9.7Q223.83-16.25 227.68-20.15 231.53-24.05 237.43-24.05ZM238.18-20.15L238.18-20.15Q234.98-20.15 233.1-17.73 231.23-15.3 230.88-10.5L230.88-10.5Q230.83-10.05 230.83-9.65L230.83-9.65Q230.83-7.2 232-5.75 233.18-4.3 235.03-4.3L235.03-4.3Q238.18-4.3 239.78-8.7L239.78-8.7 241.03-19.55Q239.48-20.15 238.18-20.15ZM232.18 7.5L232.18 7.5Q232.18 8.85 232.95 9.63 233.73 10.4 234.73 10.4L234.73 10.4Q237.53 10.4 237.98 6.85L237.98 6.85 238.83-0.65Q232.18 3.3 232.18 7.5ZM272.83 0.25L272.83 0.25Q268.23 0.25 266.73-2.95L266.73-2.95Q264.13 0.3 260.05 0.3 255.98 0.3 253.2-2.45 250.43-5.2 250.43-9.7L250.43-9.7Q250.43-16.25 254.28-20.15 258.13-24.05 264.03-24.05L264.03-24.05Q264.18-24.05 264.33-24.05L264.33-24.05Q266.83-24.05 268.93-23.2L268.93-23.2Q270.28-24.05 272.2-24.05 274.13-24.05 274.98-23.55L274.98-23.55Q274.53-19.85 274.03-16.28 273.53-12.7 273.33-11.2L273.33-11.2Q272.88-7.8 272.88-6.3L272.88-6.3Q272.88-4.3 274.48-4.3L274.48-4.3Q275.73-4.3 277.13-5.98 278.53-7.65 279.58-11.25L279.58-11.25Q281.03-9.95 281.58-8.35L281.58-8.35Q280.13-3.6 277.68-1.68 275.23 0.25 272.83 0.25ZM264.78-20.15L264.78-20.15Q261.58-20.15 259.7-17.73 257.83-15.3 257.48-10.5L257.48-10.5Q257.43-10.05 257.43-9.65L257.43-9.65Q257.43-7.2 258.6-5.75 259.78-4.3 261.63-4.3L261.63-4.3Q264.78-4.3 266.38-8.75L266.38-8.75 267.58-19.55Q266.13-20.15 264.78-20.15Z" opacity="1" transform="matrix(1,0,0,1,0,0)" fill="white" class="wordmark-text-0" id="SvgjsPath1136"></path></svg></g></svg></g></svg></g></svg></g></svg></g></svg></g></svg></g></svg></g><defs><mask></mask></defs></svg><rect width="395.52" height="247.2" fill="black" stroke="none" visibility="hidden"></rect></g></mask><linearGradient x1="0" x2="1" y1="0.5" y2="0.5" id="cc105b25-b49b-443e-949d-0a1d5c45da57"><stop stop-color="#f00b51" offset="0"></stop><stop stop-color="#730062" offset="1"></stop></linearGradient><rect width="395.52" height="247.20000000000002" fill="url(#cc105b25-b49b-443e-949d-0a1d5c45da57)" mask="url(#0cb6ca5e-232f-4bfc-84a3-3adc35eb73f5)" data-fill-palette-color="primary"></rect><mask id="a01a1076-ad7d-443b-8df3-9f59cdd1c707"><g id="SvgjsG1197"><svg viewBox="0 0 395.52 247.2" height="247.2" width="395.52"><g><svg></svg></g><g><svg viewBox="0 0 395.52 247.2" height="247.2" width="395.52"><mask id="SvgjsMask1196"><rect width="395.52" height="247.2" fill="black"></rect><g transform="matrix(1,0,0,1,0,83.40290424412487)" id="SvgjsG1195"><svg viewBox="0 0 395.52 80.39419151175025" height="80.39419151175025" width="395.52"><g><svg viewBox="0 0 395.52 80.39419151175025" height="80.39419151175025" width="395.52"><g><svg viewBox="0 0 395.52 80.39419151175025" height="80.39419151175025" width="395.52"><g><svg viewBox="0 0 395.52 80.39419151175025" height="80.39419151175025" width="395.52"><g id="SvgjsG1194"><svg viewBox="0 0 395.52 80.39419151175025" height="80.39419151175025" width="395.52" id="SvgjsSvg1193"><g><svg viewBox="0 0 395.52 80.39419151175025" height="80.39419151175025" width="395.52"><g transform="matrix(1,0,0,1,0,0)"><svg width="395.52" viewBox="-1.5 -41.05 286.08 58.949999999999996" height="80.39419151175025" data-palette-color="url(#cc105b25-b49b-443e-949d-0a1d5c45da57)"><path d="M16.5 0.3L16.5 0.3Q8.75 0.3 5.13-3.65 1.5-7.6 1.5-14.08 1.5-20.55 3.73-25.88 5.95-31.2 10.35-34.63 14.75-38.05 19.88-38.05 25-38.05 27.93-35.58 30.85-33.1 30.85-28.93 30.85-24.75 28.28-22 25.7-19.25 22.25-19.25 18.8-19.25 16.9-20.78 15-22.3 15-24.03 15-25.75 16.38-26.73 17.75-27.7 20.4-27.7L20.4-27.7Q19.75-27.05 19.75-25.98 19.75-24.9 20.4-24.1 21.05-23.3 22.4-23.3 23.75-23.3 25.1-24.73 26.45-26.15 26.45-28.5 26.45-30.85 25.03-32.25 23.6-33.65 21-33.65L21-33.65Q17.6-33.65 14.83-30.9 12.05-28.15 10.6-23.9 9.15-19.65 9.15-14.95L9.15-14.95Q9.15-10.9 10.9-7.8L10.9-7.8Q11.8-6.2 13.58-5.25 15.35-4.3 17.75-4.3L17.75-4.3Q21.85-4.3 25.65-6.93 29.45-9.55 32.05-13.7L32.05-13.7 33.75-10.65Q30.8-5.85 26.35-2.78 21.9 0.3 16.5 0.3ZM44.05-5.7L44.05-5.7 45.25-16.75Q45.25-18.1 44.55-19 43.85-19.9 42.3-19.9 40.75-19.9 39.67-18.68 38.6-17.45 38.1-15.45L38.1-15.45Q37.75-12.6 37.05-7.13 36.35-1.65 36.15 0L36.15 0 29.5 0Q33.1-30.65 33.85-37.65L33.85-37.65Q34.9-38.05 36.7-38.05L36.7-38.05Q40.6-38.05 40.6-35.75L40.6-35.75 40.6-35.45Q39.75-27.6 38.8-21.65L38.8-21.65Q41.45-24.05 44.8-24.05 48.15-24.05 50.1-22.35 52.05-20.65 52.05-18.05L52.05-18.05Q52.05-17.35 51.75-15.45L51.75-15.45Q50.6-7.95 50.6-6.65L50.6-6.65Q50.6-4.3 52.15-4.3L52.15-4.3Q53.45-4.3 54.92-6.03 56.4-7.75 57.3-11.35L57.3-11.35Q59-9.55 59.35-8.5L59.35-8.5Q56.75 0.2 50.15 0.2L50.15 0.2Q47.05 0.2 45.55-1.7 44.05-3.6 44.05-5.7ZM77.5 0.25L77.5 0.25Q72.89 0.25 71.39-2.95L71.39-2.95Q68.8 0.3 64.72 0.3 60.64 0.3 57.87-2.45 55.09-5.2 55.09-9.7L55.09-9.7Q55.09-16.25 58.95-20.15 62.8-24.05 68.69-24.05L68.69-24.05Q68.84-24.05 69-24.05L69-24.05Q71.5-24.05 73.59-23.2L73.59-23.2Q74.94-24.05 76.87-24.05 78.8-24.05 79.64-23.55L79.64-23.55Q79.19-19.85 78.69-16.28 78.19-12.7 78-11.2L78-11.2Q77.55-7.8 77.55-6.3L77.55-6.3Q77.55-4.3 79.14-4.3L79.14-4.3Q80.39-4.3 81.8-5.98 83.19-7.65 84.25-11.25L84.25-11.25Q85.69-9.95 86.25-8.35L86.25-8.35Q84.8-3.6 82.34-1.68 79.89 0.25 77.5 0.25ZM69.44-20.15L69.44-20.15Q66.25-20.15 64.37-17.73 62.49-15.3 62.14-10.5L62.14-10.5Q62.09-10.05 62.09-9.65L62.09-9.65Q62.09-7.2 63.27-5.75 64.44-4.3 66.3-4.3L66.3-4.3Q69.44-4.3 71.05-8.75L71.05-8.75 72.25-19.55Q70.8-20.15 69.44-20.15ZM93.94-34.8L93.94-34.8Q93.94-34.5 92.59-24.05L92.59-24.05 99.94-24.05 99.94-20.2 92.09-20.2 91.94-18.95Q97.79-14.05 97.79-8.25L97.79-8.25Q97.79-3.7 95.47-1.7 93.14 0.3 89.89 0.3 86.64 0.3 85.14-1.43 83.64-3.15 83.64-5.6L83.64-5.6Q83.64-6.15 83.74-6.8L83.74-6.8 85.29-20.1 85.09-20.2 81.04-20.2Q80.99-20.7 80.99-21.83 80.99-22.95 81.44-24.05L81.44-24.05 85.74-24.05 87.34-37.65Q88.39-38.05 90.14-38.05L90.14-38.05Q93.94-38.05 93.94-34.8ZM94.44-8.3L94.44-8.3Q94.44-11.75 91.44-15.1L91.44-15.1Q90.54-7.65 90.54-6.5L90.54-6.5Q90.54-4.25 91.99-4.25L91.99-4.25Q93.04-4.25 93.74-5.23 94.44-6.2 94.44-8.3ZM113.49-5.7L113.49-5.7 114.69-16.75Q114.69-18.1 113.99-19 113.29-19.9 111.74-19.9 110.19-19.9 109.12-18.68 108.04-17.45 107.54-15.45L107.54-15.45Q107.19-12.6 106.49-7.13 105.79-1.65 105.59 0L105.59 0 98.94 0Q102.54-30.65 103.29-37.65L103.29-37.65Q104.34-38.05 106.14-38.05L106.14-38.05Q110.04-38.05 110.04-35.75L110.04-35.75 110.04-35.45Q109.19-27.6 108.24-21.65L108.24-21.65Q110.89-24.05 114.24-24.05 117.59-24.05 119.54-22.35 121.49-20.65 121.49-18.05L121.49-18.05Q121.49-17.35 121.19-15.45L121.19-15.45Q120.04-7.95 120.04-6.65L120.04-6.65Q120.04-4.3 121.59-4.3L121.59-4.3Q122.89-4.3 124.37-6.03 125.84-7.75 126.74-11.35L126.74-11.35Q128.44-9.55 128.79-8.5L128.79-8.5Q126.19 0.2 119.59 0.2L119.59 0.2Q116.49 0.2 114.99-1.7 113.49-3.6 113.49-5.7ZM146.99-23.55L146.99-23.55Q144.94-7.35 144.94-6.3L144.94-6.3Q144.94-4.3 146.39-4.3L146.39-4.3Q147.69-4.3 149.21-6.08 150.74-7.85 151.64-11.4L151.64-11.4Q153.29-9.6 153.64-8.6L153.64-8.6Q152.49-3.75 149.99-1.75 147.49 0.25 144.84 0.25L144.84 0.25Q140.49 0.25 138.99-3.1L138.99-3.1Q136.39 0.25 132.04 0.25L132.04 0.25Q128.44 0.25 126.49-1.55 124.54-3.35 124.54-6.25L124.54-6.25Q124.54-6.95 124.79-8.7L124.79-8.7Q125.94-18 126.54-23.5L126.54-23.5Q128.09-24.05 129.39-24.05 130.69-24.05 131.34-23.95 131.99-23.85 132.59-23.2 133.19-22.55 133.19-21.35L133.19-21.35 131.54-8.6Q131.44-8 131.44-7.5L131.44-7.5Q131.44-4.55 134.14-4.55L134.14-4.55Q136.64-4.55 138.29-7L138.29-7Q138.29-7.55 138.39-8.75L138.39-8.75 140.04-22.05Q140.39-22.9 141.54-23.48 142.69-24.05 144.41-24.05 146.14-24.05 146.99-23.55ZM164.79-17.5L164.79-17.5Q164.79-19.7 162.76-19.7 160.74-19.7 159.54-17.1L159.54-17.1Q164.94-12.85 164.94-7.55L164.94-7.55Q164.94-3.7 162.79-1.7 160.64 0.3 157.39 0.3 154.14 0.3 152.64-1.73 151.14-3.75 151.14-6.85L151.14-6.85Q151.14-7.8 151.19-8.25L151.19-8.25 152.94-23.5Q154.74-24.05 156.59-24.05L156.59-24.05Q159.64-24.05 159.64-21.8L159.64-21.8 159.64-21.7Q161.64-24.05 164.74-24.05L164.74-24.05Q166.99-24.05 168.24-23.03 169.49-22 169.49-20.3 169.49-18.6 168.21-17.53 166.94-16.45 164.89-16.45L164.89-16.45Q164.79-16.45 164.69-16.45L164.69-16.45Q164.79-17 164.79-17.5ZM161.69-7.8Q161.69-10.7 158.69-13.6L158.69-13.6Q157.79-6.4 157.79-6.35L157.79-6.35Q157.79-4.25 159.49-4.25L159.49-4.25Q161.69-4.25 161.69-7.8L161.69-7.8ZM192.88 0.25L192.88 0.25Q188.28 0.25 186.78-2.95L186.78-2.95Q184.18 0.3 180.11 0.3 176.03 0.3 173.26-2.45 170.48-5.2 170.48-9.7L170.48-9.7Q170.48-16.25 174.33-20.15 178.18-24.05 184.08-24.05L184.08-24.05Q184.23-24.05 184.38-24.05L184.38-24.05Q186.88-24.05 188.98-23.2L188.98-23.2Q190.33-24.05 192.26-24.05 194.18-24.05 195.03-23.55L195.03-23.55Q194.58-19.85 194.08-16.28 193.58-12.7 193.38-11.2L193.38-11.2Q192.93-7.8 192.93-6.3L192.93-6.3Q192.93-4.3 194.53-4.3L194.53-4.3Q195.78-4.3 197.18-5.98 198.58-7.65 199.63-11.25L199.63-11.25Q201.08-9.95 201.63-8.35L201.63-8.35Q200.18-3.6 197.73-1.68 195.28 0.25 192.88 0.25ZM184.83-20.15L184.83-20.15Q181.63-20.15 179.76-17.73 177.88-15.3 177.53-10.5L177.53-10.5Q177.48-10.05 177.48-9.65L177.48-9.65Q177.48-7.2 178.66-5.75 179.83-4.3 181.68-4.3L181.68-4.3Q184.83-4.3 186.43-8.75L186.43-8.75 187.63-19.55Q186.18-20.15 184.83-20.15ZM212.28-5.6L212.28-5.6 213.48-16.75Q213.48-18.1 212.78-19 212.08-19.9 210.46-19.9 208.83-19.9 207.71-18.48 206.58-17.05 206.28-14.9L206.28-14.9Q204.48-1.2 204.38 0L204.38 0 197.63 0 200.38-23.55Q202.48-24.1 203.58-24.1L203.58-24.1Q206.93-24.1 207.08-21.65L207.08-21.65Q209.53-24.05 212.96-24.05 216.38-24.05 218.33-22.35 220.28-20.65 220.28-18.05L220.28-18.05Q220.28-17.35 219.98-15.4L219.98-15.4Q218.83-7.8 218.83-6.55L218.83-6.55Q218.83-4.25 220.38-4.25L220.38-4.25Q223.78-4.25 225.53-11.35L225.53-11.35Q227.23-9.55 227.58-8.5L227.58-8.5Q224.93 0.3 218.38 0.3L218.38 0.3Q215.28 0.3 213.78-1.6 212.28-3.5 212.28-5.6ZM237.43-24.05L237.43-24.05Q240.18-24.05 242.48-23.15L242.48-23.15Q244.03-24.1 245.73-24.1 247.43-24.1 248.43-23.65L248.43-23.65 246.63-9.55Q250.33-12.4 252.23-14.75L252.23-14.75 253.68-11.7Q250.83-8.7 246.08-5.3L246.08-5.3 244.73 5.15Q244.18 9.85 241.65 12.38 239.13 14.9 235.13 14.9L235.13 14.9Q232.83 14.9 230.63 13.4L230.63 13.4Q228.33 11.8 228.33 8.25L228.33 8.25Q228.33 3.9 232.48 0.3L232.48 0.3Q228.93 0.05 226.38-2.65 223.83-5.35 223.83-9.7L223.83-9.7Q223.83-16.25 227.68-20.15 231.53-24.05 237.43-24.05ZM238.18-20.15L238.18-20.15Q234.98-20.15 233.1-17.73 231.23-15.3 230.88-10.5L230.88-10.5Q230.83-10.05 230.83-9.65L230.83-9.65Q230.83-7.2 232-5.75 233.18-4.3 235.03-4.3L235.03-4.3Q238.18-4.3 239.78-8.7L239.78-8.7 241.03-19.55Q239.48-20.15 238.18-20.15ZM232.18 7.5L232.18 7.5Q232.18 8.85 232.95 9.63 233.73 10.4 234.73 10.4L234.73 10.4Q237.53 10.4 237.98 6.85L237.98 6.85 238.83-0.65Q232.18 3.3 232.18 7.5ZM272.83 0.25L272.83 0.25Q268.23 0.25 266.73-2.95L266.73-2.95Q264.13 0.3 260.05 0.3 255.98 0.3 253.2-2.45 250.43-5.2 250.43-9.7L250.43-9.7Q250.43-16.25 254.28-20.15 258.13-24.05 264.03-24.05L264.03-24.05Q264.18-24.05 264.33-24.05L264.33-24.05Q266.83-24.05 268.93-23.2L268.93-23.2Q270.28-24.05 272.2-24.05 274.13-24.05 274.98-23.55L274.98-23.55Q274.53-19.85 274.03-16.28 273.53-12.7 273.33-11.2L273.33-11.2Q272.88-7.8 272.88-6.3L272.88-6.3Q272.88-4.3 274.48-4.3L274.48-4.3Q275.73-4.3 277.13-5.98 278.53-7.65 279.58-11.25L279.58-11.25Q281.03-9.95 281.58-8.35L281.58-8.35Q280.13-3.6 277.68-1.68 275.23 0.25 272.83 0.25ZM264.78-20.15L264.78-20.15Q261.58-20.15 259.7-17.73 257.83-15.3 257.48-10.5L257.48-10.5Q257.43-10.05 257.43-9.65L257.43-9.65Q257.43-7.2 258.6-5.75 259.78-4.3 261.63-4.3L261.63-4.3Q264.78-4.3 266.38-8.75L266.38-8.75 267.58-19.55Q266.13-20.15 264.78-20.15Z" opacity="1" transform="matrix(1,0,0,1,0,0)" fill="black" class="wordmark-text-0" id="SvgjsPath1192" stroke-width="5" stroke="black" stroke-linejoin="round"></path></svg></g></svg></g></svg></g></svg></g></svg></g></svg></g></svg></g></mask><g mask="url(#09b11dd6-4cff-42e3-9fe2-0d188ed3b214)"><g><path d="M190.508 247.2v0c-33.304 0-57.734-8.487-73.289-25.461-15.599-16.974-23.399-39.384-23.399-67.231 0-27.803 4.791-53.157 14.374-76.061 9.54-22.861 23.764-41.662 42.672-56.402 18.908-14.697 39.384-22.045 61.429-22.045 22.002 0 39.298 5.307 51.89 15.921 12.548 10.657 18.822 24.946 18.822 42.866 0 17.963-5.522 32.853-16.566 44.67-11.087 11.817-24.043 17.726-38.869 17.726-14.826 0-26.321-3.287-34.485-9.862-8.165-6.532-12.247-13.515-12.247-20.95 0-7.391 2.965-13.193 8.895-17.403 5.887-4.168 14.525-6.253 25.912-6.253v0c-2.793 2.793-4.19 6.489-4.189 11.087 0 4.641 1.397 8.68 4.189 12.118 2.793 3.438 7.09 5.157 12.892 5.157 5.801 0 11.603-3.073 17.404-9.218 5.801-6.102 8.702-14.202 8.702-24.301 0-10.099-3.051-18.156-9.153-24.172-6.145-6.016-14.804-9.024-25.977-9.024v0c-14.611 0-27.868 5.909-39.771 17.726-11.946 11.817-21.035 26.858-27.266 45.121-6.231 18.263-9.347 37.494-9.347 57.691v0c0 17.404 3.76 32.767 11.28 46.088v0c3.868 6.876 9.626 12.355 17.275 16.437 7.606 4.082 16.566 6.124 26.88 6.124v0c17.619 0 34.593-5.651 50.922-16.953 16.33-11.259 30.081-25.805 41.254-43.638v0l10.958 19.659c-12.677 20.627-28.577 37.537-47.7 50.73-19.123 13.236-40.287 19.853-63.492 19.853z" fill="white" fill-rule="nonzero" stroke="none" stroke-width="1" stroke-linecap="butt" stroke-linejoin="miter" stroke-miterlimit="10" stroke-dasharray="" stroke-dashoffset="0" font-family="none" font-weight="none" font-size="none" text-anchor="none" style="mix-blend-mode: normal"></path></g></g><g transform="matrix(1,0,0,1,0,83.40290424412487)"><svg viewBox="0 0 395.52 80.39419151175025" height="80.39419151175025" width="395.52"><g><svg viewBox="0 0 395.52 80.39419151175025" height="80.39419151175025" width="395.52"><g><svg viewBox="0 0 395.52 80.39419151175025" height="80.39419151175025" width="395.52"><g><svg viewBox="0 0 395.52 80.39419151175025" height="80.39419151175025" width="395.52"><g id="SvgjsG1191"><svg viewBox="0 0 395.52 80.39419151175025" height="80.39419151175025" width="395.52" id="SvgjsSvg1190"><g><svg viewBox="0 0 395.52 80.39419151175025" height="80.39419151175025" width="395.52"><g transform="matrix(1,0,0,1,0,0)"><svg width="395.52" viewBox="-1.5 -41.05 286.08 58.949999999999996" height="80.39419151175025" data-palette-color="url(#cc105b25-b49b-443e-949d-0a1d5c45da57)"></svg></g></svg></g></svg></g></svg></g></svg></g></svg></g></svg></g></svg></g><defs><mask></mask></defs><mask><g id="SvgjsG1189"><svg viewBox="0 0 395.52 247.2" height="247.2" width="395.52"><g><svg></svg></g><g><svg viewBox="0 0 395.52 247.2" height="247.2" width="395.52"><mask id="SvgjsMask1188"><rect width="395.52" height="247.2" fill="black"></rect><g transform="matrix(1,0,0,1,0,83.40290424412487)" id="SvgjsG1187"><svg viewBox="0 0 395.52 80.39419151175025" height="80.39419151175025" width="395.52"><g><svg viewBox="0 0 395.52 80.39419151175025" height="80.39419151175025" width="395.52"><g><svg viewBox="0 0 395.52 80.39419151175025" height="80.39419151175025" width="395.52"><g><svg viewBox="0 0 395.52 80.39419151175025" height="80.39419151175025" width="395.52"><g id="SvgjsG1186"><svg viewBox="0 0 395.52 80.39419151175025" height="80.39419151175025" width="395.52" id="SvgjsSvg1185"><g><svg viewBox="0 0 395.52 80.39419151175025" height="80.39419151175025" width="395.52"><g transform="matrix(1,0,0,1,0,0)"><svg width="395.52" viewBox="-1.5 -41.05 286.08 58.949999999999996" height="80.39419151175025" data-palette-color="url(#cc105b25-b49b-443e-949d-0a1d5c45da57)"><path d="M16.5 0.3L16.5 0.3Q8.75 0.3 5.13-3.65 1.5-7.6 1.5-14.08 1.5-20.55 3.73-25.88 5.95-31.2 10.35-34.63 14.75-38.05 19.88-38.05 25-38.05 27.93-35.58 30.85-33.1 30.85-28.93 30.85-24.75 28.28-22 25.7-19.25 22.25-19.25 18.8-19.25 16.9-20.78 15-22.3 15-24.03 15-25.75 16.38-26.73 17.75-27.7 20.4-27.7L20.4-27.7Q19.75-27.05 19.75-25.98 19.75-24.9 20.4-24.1 21.05-23.3 22.4-23.3 23.75-23.3 25.1-24.73 26.45-26.15 26.45-28.5 26.45-30.85 25.03-32.25 23.6-33.65 21-33.65L21-33.65Q17.6-33.65 14.83-30.9 12.05-28.15 10.6-23.9 9.15-19.65 9.15-14.95L9.15-14.95Q9.15-10.9 10.9-7.8L10.9-7.8Q11.8-6.2 13.58-5.25 15.35-4.3 17.75-4.3L17.75-4.3Q21.85-4.3 25.65-6.93 29.45-9.55 32.05-13.7L32.05-13.7 33.75-10.65Q30.8-5.85 26.35-2.78 21.9 0.3 16.5 0.3ZM44.05-5.7L44.05-5.7 45.25-16.75Q45.25-18.1 44.55-19 43.85-19.9 42.3-19.9 40.75-19.9 39.67-18.68 38.6-17.45 38.1-15.45L38.1-15.45Q37.75-12.6 37.05-7.13 36.35-1.65 36.15 0L36.15 0 29.5 0Q33.1-30.65 33.85-37.65L33.85-37.65Q34.9-38.05 36.7-38.05L36.7-38.05Q40.6-38.05 40.6-35.75L40.6-35.75 40.6-35.45Q39.75-27.6 38.8-21.65L38.8-21.65Q41.45-24.05 44.8-24.05 48.15-24.05 50.1-22.35 52.05-20.65 52.05-18.05L52.05-18.05Q52.05-17.35 51.75-15.45L51.75-15.45Q50.6-7.95 50.6-6.65L50.6-6.65Q50.6-4.3 52.15-4.3L52.15-4.3Q53.45-4.3 54.92-6.03 56.4-7.75 57.3-11.35L57.3-11.35Q59-9.55 59.35-8.5L59.35-8.5Q56.75 0.2 50.15 0.2L50.15 0.2Q47.05 0.2 45.55-1.7 44.05-3.6 44.05-5.7ZM77.5 0.25L77.5 0.25Q72.89 0.25 71.39-2.95L71.39-2.95Q68.8 0.3 64.72 0.3 60.64 0.3 57.87-2.45 55.09-5.2 55.09-9.7L55.09-9.7Q55.09-16.25 58.95-20.15 62.8-24.05 68.69-24.05L68.69-24.05Q68.84-24.05 69-24.05L69-24.05Q71.5-24.05 73.59-23.2L73.59-23.2Q74.94-24.05 76.87-24.05 78.8-24.05 79.64-23.55L79.64-23.55Q79.19-19.85 78.69-16.28 78.19-12.7 78-11.2L78-11.2Q77.55-7.8 77.55-6.3L77.55-6.3Q77.55-4.3 79.14-4.3L79.14-4.3Q80.39-4.3 81.8-5.98 83.19-7.65 84.25-11.25L84.25-11.25Q85.69-9.95 86.25-8.35L86.25-8.35Q84.8-3.6 82.34-1.68 79.89 0.25 77.5 0.25ZM69.44-20.15L69.44-20.15Q66.25-20.15 64.37-17.73 62.49-15.3 62.14-10.5L62.14-10.5Q62.09-10.05 62.09-9.65L62.09-9.65Q62.09-7.2 63.27-5.75 64.44-4.3 66.3-4.3L66.3-4.3Q69.44-4.3 71.05-8.75L71.05-8.75 72.25-19.55Q70.8-20.15 69.44-20.15ZM93.94-34.8L93.94-34.8Q93.94-34.5 92.59-24.05L92.59-24.05 99.94-24.05 99.94-20.2 92.09-20.2 91.94-18.95Q97.79-14.05 97.79-8.25L97.79-8.25Q97.79-3.7 95.47-1.7 93.14 0.3 89.89 0.3 86.64 0.3 85.14-1.43 83.64-3.15 83.64-5.6L83.64-5.6Q83.64-6.15 83.74-6.8L83.74-6.8 85.29-20.1 85.09-20.2 81.04-20.2Q80.99-20.7 80.99-21.83 80.99-22.95 81.44-24.05L81.44-24.05 85.74-24.05 87.34-37.65Q88.39-38.05 90.14-38.05L90.14-38.05Q93.94-38.05 93.94-34.8ZM94.44-8.3L94.44-8.3Q94.44-11.75 91.44-15.1L91.44-15.1Q90.54-7.65 90.54-6.5L90.54-6.5Q90.54-4.25 91.99-4.25L91.99-4.25Q93.04-4.25 93.74-5.23 94.44-6.2 94.44-8.3ZM113.49-5.7L113.49-5.7 114.69-16.75Q114.69-18.1 113.99-19 113.29-19.9 111.74-19.9 110.19-19.9 109.12-18.68 108.04-17.45 107.54-15.45L107.54-15.45Q107.19-12.6 106.49-7.13 105.79-1.65 105.59 0L105.59 0 98.94 0Q102.54-30.65 103.29-37.65L103.29-37.65Q104.34-38.05 106.14-38.05L106.14-38.05Q110.04-38.05 110.04-35.75L110.04-35.75 110.04-35.45Q109.19-27.6 108.24-21.65L108.24-21.65Q110.89-24.05 114.24-24.05 117.59-24.05 119.54-22.35 121.49-20.65 121.49-18.05L121.49-18.05Q121.49-17.35 121.19-15.45L121.19-15.45Q120.04-7.95 120.04-6.65L120.04-6.65Q120.04-4.3 121.59-4.3L121.59-4.3Q122.89-4.3 124.37-6.03 125.84-7.75 126.74-11.35L126.74-11.35Q128.44-9.55 128.79-8.5L128.79-8.5Q126.19 0.2 119.59 0.2L119.59 0.2Q116.49 0.2 114.99-1.7 113.49-3.6 113.49-5.7ZM146.99-23.55L146.99-23.55Q144.94-7.35 144.94-6.3L144.94-6.3Q144.94-4.3 146.39-4.3L146.39-4.3Q147.69-4.3 149.21-6.08 150.74-7.85 151.64-11.4L151.64-11.4Q153.29-9.6 153.64-8.6L153.64-8.6Q152.49-3.75 149.99-1.75 147.49 0.25 144.84 0.25L144.84 0.25Q140.49 0.25 138.99-3.1L138.99-3.1Q136.39 0.25 132.04 0.25L132.04 0.25Q128.44 0.25 126.49-1.55 124.54-3.35 124.54-6.25L124.54-6.25Q124.54-6.95 124.79-8.7L124.79-8.7Q125.94-18 126.54-23.5L126.54-23.5Q128.09-24.05 129.39-24.05 130.69-24.05 131.34-23.95 131.99-23.85 132.59-23.2 133.19-22.55 133.19-21.35L133.19-21.35 131.54-8.6Q131.44-8 131.44-7.5L131.44-7.5Q131.44-4.55 134.14-4.55L134.14-4.55Q136.64-4.55 138.29-7L138.29-7Q138.29-7.55 138.39-8.75L138.39-8.75 140.04-22.05Q140.39-22.9 141.54-23.48 142.69-24.05 144.41-24.05 146.14-24.05 146.99-23.55ZM164.79-17.5L164.79-17.5Q164.79-19.7 162.76-19.7 160.74-19.7 159.54-17.1L159.54-17.1Q164.94-12.85 164.94-7.55L164.94-7.55Q164.94-3.7 162.79-1.7 160.64 0.3 157.39 0.3 154.14 0.3 152.64-1.73 151.14-3.75 151.14-6.85L151.14-6.85Q151.14-7.8 151.19-8.25L151.19-8.25 152.94-23.5Q154.74-24.05 156.59-24.05L156.59-24.05Q159.64-24.05 159.64-21.8L159.64-21.8 159.64-21.7Q161.64-24.05 164.74-24.05L164.74-24.05Q166.99-24.05 168.24-23.03 169.49-22 169.49-20.3 169.49-18.6 168.21-17.53 166.94-16.45 164.89-16.45L164.89-16.45Q164.79-16.45 164.69-16.45L164.69-16.45Q164.79-17 164.79-17.5ZM161.69-7.8Q161.69-10.7 158.69-13.6L158.69-13.6Q157.79-6.4 157.79-6.35L157.79-6.35Q157.79-4.25 159.49-4.25L159.49-4.25Q161.69-4.25 161.69-7.8L161.69-7.8ZM192.88 0.25L192.88 0.25Q188.28 0.25 186.78-2.95L186.78-2.95Q184.18 0.3 180.11 0.3 176.03 0.3 173.26-2.45 170.48-5.2 170.48-9.7L170.48-9.7Q170.48-16.25 174.33-20.15 178.18-24.05 184.08-24.05L184.08-24.05Q184.23-24.05 184.38-24.05L184.38-24.05Q186.88-24.05 188.98-23.2L188.98-23.2Q190.33-24.05 192.26-24.05 194.18-24.05 195.03-23.55L195.03-23.55Q194.58-19.85 194.08-16.28 193.58-12.7 193.38-11.2L193.38-11.2Q192.93-7.8 192.93-6.3L192.93-6.3Q192.93-4.3 194.53-4.3L194.53-4.3Q195.78-4.3 197.18-5.98 198.58-7.65 199.63-11.25L199.63-11.25Q201.08-9.95 201.63-8.35L201.63-8.35Q200.18-3.6 197.73-1.68 195.28 0.25 192.88 0.25ZM184.83-20.15L184.83-20.15Q181.63-20.15 179.76-17.73 177.88-15.3 177.53-10.5L177.53-10.5Q177.48-10.05 177.48-9.65L177.48-9.65Q177.48-7.2 178.66-5.75 179.83-4.3 181.68-4.3L181.68-4.3Q184.83-4.3 186.43-8.75L186.43-8.75 187.63-19.55Q186.18-20.15 184.83-20.15ZM212.28-5.6L212.28-5.6 213.48-16.75Q213.48-18.1 212.78-19 212.08-19.9 210.46-19.9 208.83-19.9 207.71-18.48 206.58-17.05 206.28-14.9L206.28-14.9Q204.48-1.2 204.38 0L204.38 0 197.63 0 200.38-23.55Q202.48-24.1 203.58-24.1L203.58-24.1Q206.93-24.1 207.08-21.65L207.08-21.65Q209.53-24.05 212.96-24.05 216.38-24.05 218.33-22.35 220.28-20.65 220.28-18.05L220.28-18.05Q220.28-17.35 219.98-15.4L219.98-15.4Q218.83-7.8 218.83-6.55L218.83-6.55Q218.83-4.25 220.38-4.25L220.38-4.25Q223.78-4.25 225.53-11.35L225.53-11.35Q227.23-9.55 227.58-8.5L227.58-8.5Q224.93 0.3 218.38 0.3L218.38 0.3Q215.28 0.3 213.78-1.6 212.28-3.5 212.28-5.6ZM237.43-24.05L237.43-24.05Q240.18-24.05 242.48-23.15L242.48-23.15Q244.03-24.1 245.73-24.1 247.43-24.1 248.43-23.65L248.43-23.65 246.63-9.55Q250.33-12.4 252.23-14.75L252.23-14.75 253.68-11.7Q250.83-8.7 246.08-5.3L246.08-5.3 244.73 5.15Q244.18 9.85 241.65 12.38 239.13 14.9 235.13 14.9L235.13 14.9Q232.83 14.9 230.63 13.4L230.63 13.4Q228.33 11.8 228.33 8.25L228.33 8.25Q228.33 3.9 232.48 0.3L232.48 0.3Q228.93 0.05 226.38-2.65 223.83-5.35 223.83-9.7L223.83-9.7Q223.83-16.25 227.68-20.15 231.53-24.05 237.43-24.05ZM238.18-20.15L238.18-20.15Q234.98-20.15 233.1-17.73 231.23-15.3 230.88-10.5L230.88-10.5Q230.83-10.05 230.83-9.65L230.83-9.65Q230.83-7.2 232-5.75 233.18-4.3 235.03-4.3L235.03-4.3Q238.18-4.3 239.78-8.7L239.78-8.7 241.03-19.55Q239.48-20.15 238.18-20.15ZM232.18 7.5L232.18 7.5Q232.18 8.85 232.95 9.63 233.73 10.4 234.73 10.4L234.73 10.4Q237.53 10.4 237.98 6.85L237.98 6.85 238.83-0.65Q232.18 3.3 232.18 7.5ZM272.83 0.25L272.83 0.25Q268.23 0.25 266.73-2.95L266.73-2.95Q264.13 0.3 260.05 0.3 255.98 0.3 253.2-2.45 250.43-5.2 250.43-9.7L250.43-9.7Q250.43-16.25 254.28-20.15 258.13-24.05 264.03-24.05L264.03-24.05Q264.18-24.05 264.33-24.05L264.33-24.05Q266.83-24.05 268.93-23.2L268.93-23.2Q270.28-24.05 272.2-24.05 274.13-24.05 274.98-23.55L274.98-23.55Q274.53-19.85 274.03-16.28 273.53-12.7 273.33-11.2L273.33-11.2Q272.88-7.8 272.88-6.3L272.88-6.3Q272.88-4.3 274.48-4.3L274.48-4.3Q275.73-4.3 277.13-5.98 278.53-7.65 279.58-11.25L279.58-11.25Q281.03-9.95 281.58-8.35L281.58-8.35Q280.13-3.6 277.68-1.68 275.23 0.25 272.83 0.25ZM264.78-20.15L264.78-20.15Q261.58-20.15 259.7-17.73 257.83-15.3 257.48-10.5L257.48-10.5Q257.43-10.05 257.43-9.65L257.43-9.65Q257.43-7.2 258.6-5.75 259.78-4.3 261.63-4.3L261.63-4.3Q264.78-4.3 266.38-8.75L266.38-8.75 267.58-19.55Q266.13-20.15 264.78-20.15Z" opacity="1" transform="matrix(1,0,0,1,0,0)" fill="black" class="wordmark-text-0" id="SvgjsPath1184" stroke-width="5" stroke="black" stroke-linejoin="round"></path></svg></g></svg></g></svg></g></svg></g></svg></g></svg></g></svg></g></mask><g mask="url(#09b11dd6-4cff-42e3-9fe2-0d188ed3b214)"><g><path d="M190.508 247.2v0c-33.304 0-57.734-8.487-73.289-25.461-15.599-16.974-23.399-39.384-23.399-67.231 0-27.803 4.791-53.157 14.374-76.061 9.54-22.861 23.764-41.662 42.672-56.402 18.908-14.697 39.384-22.045 61.429-22.045 22.002 0 39.298 5.307 51.89 15.921 12.548 10.657 18.822 24.946 18.822 42.866 0 17.963-5.522 32.853-16.566 44.67-11.087 11.817-24.043 17.726-38.869 17.726-14.826 0-26.321-3.287-34.485-9.862-8.165-6.532-12.247-13.515-12.247-20.95 0-7.391 2.965-13.193 8.895-17.403 5.887-4.168 14.525-6.253 25.912-6.253v0c-2.793 2.793-4.19 6.489-4.189 11.087 0 4.641 1.397 8.68 4.189 12.118 2.793 3.438 7.09 5.157 12.892 5.157 5.801 0 11.603-3.073 17.404-9.218 5.801-6.102 8.702-14.202 8.702-24.301 0-10.099-3.051-18.156-9.153-24.172-6.145-6.016-14.804-9.024-25.977-9.024v0c-14.611 0-27.868 5.909-39.771 17.726-11.946 11.817-21.035 26.858-27.266 45.121-6.231 18.263-9.347 37.494-9.347 57.691v0c0 17.404 3.76 32.767 11.28 46.088v0c3.868 6.876 9.626 12.355 17.275 16.437 7.606 4.082 16.566 6.124 26.88 6.124v0c17.619 0 34.593-5.651 50.922-16.953 16.33-11.259 30.081-25.805 41.254-43.638v0l10.958 19.659c-12.677 20.627-28.577 37.537-47.7 50.73-19.123 13.236-40.287 19.853-63.492 19.853z" fill="black" fill-rule="nonzero" stroke="none" stroke-width="1" stroke-linecap="butt" stroke-linejoin="miter" stroke-miterlimit="10" stroke-dasharray="" stroke-dashoffset="0" font-family="none" font-weight="none" font-size="none" text-anchor="none" style="mix-blend-mode: normal"></path></g></g><g transform="matrix(1,0,0,1,0,83.40290424412487)"><svg viewBox="0 0 395.52 80.39419151175025" height="80.39419151175025" width="395.52"><g><svg viewBox="0 0 395.52 80.39419151175025" height="80.39419151175025" width="395.52"><g><svg viewBox="0 0 395.52 80.39419151175025" height="80.39419151175025" width="395.52"><g><svg viewBox="0 0 395.52 80.39419151175025" height="80.39419151175025" width="395.52"><g id="SvgjsG1183"><svg viewBox="0 0 395.52 80.39419151175025" height="80.39419151175025" width="395.52" id="SvgjsSvg1182"><g><svg viewBox="0 0 395.52 80.39419151175025" height="80.39419151175025" width="395.52"><g transform="matrix(1,0,0,1,0,0)"><svg width="395.52" viewBox="-1.5 -41.05 286.08 58.949999999999996" height="80.39419151175025" data-palette-color="url(#cc105b25-b49b-443e-949d-0a1d5c45da57)"><path d="M16.5 0.3L16.5 0.3Q8.75 0.3 5.13-3.65 1.5-7.6 1.5-14.08 1.5-20.55 3.73-25.88 5.95-31.2 10.35-34.63 14.75-38.05 19.88-38.05 25-38.05 27.93-35.58 30.85-33.1 30.85-28.93 30.85-24.75 28.28-22 25.7-19.25 22.25-19.25 18.8-19.25 16.9-20.78 15-22.3 15-24.03 15-25.75 16.38-26.73 17.75-27.7 20.4-27.7L20.4-27.7Q19.75-27.05 19.75-25.98 19.75-24.9 20.4-24.1 21.05-23.3 22.4-23.3 23.75-23.3 25.1-24.73 26.45-26.15 26.45-28.5 26.45-30.85 25.03-32.25 23.6-33.65 21-33.65L21-33.65Q17.6-33.65 14.83-30.9 12.05-28.15 10.6-23.9 9.15-19.65 9.15-14.95L9.15-14.95Q9.15-10.9 10.9-7.8L10.9-7.8Q11.8-6.2 13.58-5.25 15.35-4.3 17.75-4.3L17.75-4.3Q21.85-4.3 25.65-6.93 29.45-9.55 32.05-13.7L32.05-13.7 33.75-10.65Q30.8-5.85 26.35-2.78 21.9 0.3 16.5 0.3ZM44.05-5.7L44.05-5.7 45.25-16.75Q45.25-18.1 44.55-19 43.85-19.9 42.3-19.9 40.75-19.9 39.67-18.68 38.6-17.45 38.1-15.45L38.1-15.45Q37.75-12.6 37.05-7.13 36.35-1.65 36.15 0L36.15 0 29.5 0Q33.1-30.65 33.85-37.65L33.85-37.65Q34.9-38.05 36.7-38.05L36.7-38.05Q40.6-38.05 40.6-35.75L40.6-35.75 40.6-35.45Q39.75-27.6 38.8-21.65L38.8-21.65Q41.45-24.05 44.8-24.05 48.15-24.05 50.1-22.35 52.05-20.65 52.05-18.05L52.05-18.05Q52.05-17.35 51.75-15.45L51.75-15.45Q50.6-7.95 50.6-6.65L50.6-6.65Q50.6-4.3 52.15-4.3L52.15-4.3Q53.45-4.3 54.92-6.03 56.4-7.75 57.3-11.35L57.3-11.35Q59-9.55 59.35-8.5L59.35-8.5Q56.75 0.2 50.15 0.2L50.15 0.2Q47.05 0.2 45.55-1.7 44.05-3.6 44.05-5.7ZM77.5 0.25L77.5 0.25Q72.89 0.25 71.39-2.95L71.39-2.95Q68.8 0.3 64.72 0.3 60.64 0.3 57.87-2.45 55.09-5.2 55.09-9.7L55.09-9.7Q55.09-16.25 58.95-20.15 62.8-24.05 68.69-24.05L68.69-24.05Q68.84-24.05 69-24.05L69-24.05Q71.5-24.05 73.59-23.2L73.59-23.2Q74.94-24.05 76.87-24.05 78.8-24.05 79.64-23.55L79.64-23.55Q79.19-19.85 78.69-16.28 78.19-12.7 78-11.2L78-11.2Q77.55-7.8 77.55-6.3L77.55-6.3Q77.55-4.3 79.14-4.3L79.14-4.3Q80.39-4.3 81.8-5.98 83.19-7.65 84.25-11.25L84.25-11.25Q85.69-9.95 86.25-8.35L86.25-8.35Q84.8-3.6 82.34-1.68 79.89 0.25 77.5 0.25ZM69.44-20.15L69.44-20.15Q66.25-20.15 64.37-17.73 62.49-15.3 62.14-10.5L62.14-10.5Q62.09-10.05 62.09-9.65L62.09-9.65Q62.09-7.2 63.27-5.75 64.44-4.3 66.3-4.3L66.3-4.3Q69.44-4.3 71.05-8.75L71.05-8.75 72.25-19.55Q70.8-20.15 69.44-20.15ZM93.94-34.8L93.94-34.8Q93.94-34.5 92.59-24.05L92.59-24.05 99.94-24.05 99.94-20.2 92.09-20.2 91.94-18.95Q97.79-14.05 97.79-8.25L97.79-8.25Q97.79-3.7 95.47-1.7 93.14 0.3 89.89 0.3 86.64 0.3 85.14-1.43 83.64-3.15 83.64-5.6L83.64-5.6Q83.64-6.15 83.74-6.8L83.74-6.8 85.29-20.1 85.09-20.2 81.04-20.2Q80.99-20.7 80.99-21.83 80.99-22.95 81.44-24.05L81.44-24.05 85.74-24.05 87.34-37.65Q88.39-38.05 90.14-38.05L90.14-38.05Q93.94-38.05 93.94-34.8ZM94.44-8.3L94.44-8.3Q94.44-11.75 91.44-15.1L91.44-15.1Q90.54-7.65 90.54-6.5L90.54-6.5Q90.54-4.25 91.99-4.25L91.99-4.25Q93.04-4.25 93.74-5.23 94.44-6.2 94.44-8.3ZM113.49-5.7L113.49-5.7 114.69-16.75Q114.69-18.1 113.99-19 113.29-19.9 111.74-19.9 110.19-19.9 109.12-18.68 108.04-17.45 107.54-15.45L107.54-15.45Q107.19-12.6 106.49-7.13 105.79-1.65 105.59 0L105.59 0 98.94 0Q102.54-30.65 103.29-37.65L103.29-37.65Q104.34-38.05 106.14-38.05L106.14-38.05Q110.04-38.05 110.04-35.75L110.04-35.75 110.04-35.45Q109.19-27.6 108.24-21.65L108.24-21.65Q110.89-24.05 114.24-24.05 117.59-24.05 119.54-22.35 121.49-20.65 121.49-18.05L121.49-18.05Q121.49-17.35 121.19-15.45L121.19-15.45Q120.04-7.95 120.04-6.65L120.04-6.65Q120.04-4.3 121.59-4.3L121.59-4.3Q122.89-4.3 124.37-6.03 125.84-7.75 126.74-11.35L126.74-11.35Q128.44-9.55 128.79-8.5L128.79-8.5Q126.19 0.2 119.59 0.2L119.59 0.2Q116.49 0.2 114.99-1.7 113.49-3.6 113.49-5.7ZM146.99-23.55L146.99-23.55Q144.94-7.35 144.94-6.3L144.94-6.3Q144.94-4.3 146.39-4.3L146.39-4.3Q147.69-4.3 149.21-6.08 150.74-7.85 151.64-11.4L151.64-11.4Q153.29-9.6 153.64-8.6L153.64-8.6Q152.49-3.75 149.99-1.75 147.49 0.25 144.84 0.25L144.84 0.25Q140.49 0.25 138.99-3.1L138.99-3.1Q136.39 0.25 132.04 0.25L132.04 0.25Q128.44 0.25 126.49-1.55 124.54-3.35 124.54-6.25L124.54-6.25Q124.54-6.95 124.79-8.7L124.79-8.7Q125.94-18 126.54-23.5L126.54-23.5Q128.09-24.05 129.39-24.05 130.69-24.05 131.34-23.95 131.99-23.85 132.59-23.2 133.19-22.55 133.19-21.35L133.19-21.35 131.54-8.6Q131.44-8 131.44-7.5L131.44-7.5Q131.44-4.55 134.14-4.55L134.14-4.55Q136.64-4.55 138.29-7L138.29-7Q138.29-7.55 138.39-8.75L138.39-8.75 140.04-22.05Q140.39-22.9 141.54-23.48 142.69-24.05 144.41-24.05 146.14-24.05 146.99-23.55ZM164.79-17.5L164.79-17.5Q164.79-19.7 162.76-19.7 160.74-19.7 159.54-17.1L159.54-17.1Q164.94-12.85 164.94-7.55L164.94-7.55Q164.94-3.7 162.79-1.7 160.64 0.3 157.39 0.3 154.14 0.3 152.64-1.73 151.14-3.75 151.14-6.85L151.14-6.85Q151.14-7.8 151.19-8.25L151.19-8.25 152.94-23.5Q154.74-24.05 156.59-24.05L156.59-24.05Q159.64-24.05 159.64-21.8L159.64-21.8 159.64-21.7Q161.64-24.05 164.74-24.05L164.74-24.05Q166.99-24.05 168.24-23.03 169.49-22 169.49-20.3 169.49-18.6 168.21-17.53 166.94-16.45 164.89-16.45L164.89-16.45Q164.79-16.45 164.69-16.45L164.69-16.45Q164.79-17 164.79-17.5ZM161.69-7.8Q161.69-10.7 158.69-13.6L158.69-13.6Q157.79-6.4 157.79-6.35L157.79-6.35Q157.79-4.25 159.49-4.25L159.49-4.25Q161.69-4.25 161.69-7.8L161.69-7.8ZM192.88 0.25L192.88 0.25Q188.28 0.25 186.78-2.95L186.78-2.95Q184.18 0.3 180.11 0.3 176.03 0.3 173.26-2.45 170.48-5.2 170.48-9.7L170.48-9.7Q170.48-16.25 174.33-20.15 178.18-24.05 184.08-24.05L184.08-24.05Q184.23-24.05 184.38-24.05L184.38-24.05Q186.88-24.05 188.98-23.2L188.98-23.2Q190.33-24.05 192.26-24.05 194.18-24.05 195.03-23.55L195.03-23.55Q194.58-19.85 194.08-16.28 193.58-12.7 193.38-11.2L193.38-11.2Q192.93-7.8 192.93-6.3L192.93-6.3Q192.93-4.3 194.53-4.3L194.53-4.3Q195.78-4.3 197.18-5.98 198.58-7.65 199.63-11.25L199.63-11.25Q201.08-9.95 201.63-8.35L201.63-8.35Q200.18-3.6 197.73-1.68 195.28 0.25 192.88 0.25ZM184.83-20.15L184.83-20.15Q181.63-20.15 179.76-17.73 177.88-15.3 177.53-10.5L177.53-10.5Q177.48-10.05 177.48-9.65L177.48-9.65Q177.48-7.2 178.66-5.75 179.83-4.3 181.68-4.3L181.68-4.3Q184.83-4.3 186.43-8.75L186.43-8.75 187.63-19.55Q186.18-20.15 184.83-20.15ZM212.28-5.6L212.28-5.6 213.48-16.75Q213.48-18.1 212.78-19 212.08-19.9 210.46-19.9 208.83-19.9 207.71-18.48 206.58-17.05 206.28-14.9L206.28-14.9Q204.48-1.2 204.38 0L204.38 0 197.63 0 200.38-23.55Q202.48-24.1 203.58-24.1L203.58-24.1Q206.93-24.1 207.08-21.65L207.08-21.65Q209.53-24.05 212.96-24.05 216.38-24.05 218.33-22.35 220.28-20.65 220.28-18.05L220.28-18.05Q220.28-17.35 219.98-15.4L219.98-15.4Q218.83-7.8 218.83-6.55L218.83-6.55Q218.83-4.25 220.38-4.25L220.38-4.25Q223.78-4.25 225.53-11.35L225.53-11.35Q227.23-9.55 227.58-8.5L227.58-8.5Q224.93 0.3 218.38 0.3L218.38 0.3Q215.28 0.3 213.78-1.6 212.28-3.5 212.28-5.6ZM237.43-24.05L237.43-24.05Q240.18-24.05 242.48-23.15L242.48-23.15Q244.03-24.1 245.73-24.1 247.43-24.1 248.43-23.65L248.43-23.65 246.63-9.55Q250.33-12.4 252.23-14.75L252.23-14.75 253.68-11.7Q250.83-8.7 246.08-5.3L246.08-5.3 244.73 5.15Q244.18 9.85 241.65 12.38 239.13 14.9 235.13 14.9L235.13 14.9Q232.83 14.9 230.63 13.4L230.63 13.4Q228.33 11.8 228.33 8.25L228.33 8.25Q228.33 3.9 232.48 0.3L232.48 0.3Q228.93 0.05 226.38-2.65 223.83-5.35 223.83-9.7L223.83-9.7Q223.83-16.25 227.68-20.15 231.53-24.05 237.43-24.05ZM238.18-20.15L238.18-20.15Q234.98-20.15 233.1-17.73 231.23-15.3 230.88-10.5L230.88-10.5Q230.83-10.05 230.83-9.65L230.83-9.65Q230.83-7.2 232-5.75 233.18-4.3 235.03-4.3L235.03-4.3Q238.18-4.3 239.78-8.7L239.78-8.7 241.03-19.55Q239.48-20.15 238.18-20.15ZM232.18 7.5L232.18 7.5Q232.18 8.85 232.95 9.63 233.73 10.4 234.73 10.4L234.73 10.4Q237.53 10.4 237.98 6.85L237.98 6.85 238.83-0.65Q232.18 3.3 232.18 7.5ZM272.83 0.25L272.83 0.25Q268.23 0.25 266.73-2.95L266.73-2.95Q264.13 0.3 260.05 0.3 255.98 0.3 253.2-2.45 250.43-5.2 250.43-9.7L250.43-9.7Q250.43-16.25 254.28-20.15 258.13-24.05 264.03-24.05L264.03-24.05Q264.18-24.05 264.33-24.05L264.33-24.05Q266.83-24.05 268.93-23.2L268.93-23.2Q270.28-24.05 272.2-24.05 274.13-24.05 274.98-23.55L274.98-23.55Q274.53-19.85 274.03-16.28 273.53-12.7 273.33-11.2L273.33-11.2Q272.88-7.8 272.88-6.3L272.88-6.3Q272.88-4.3 274.48-4.3L274.48-4.3Q275.73-4.3 277.13-5.98 278.53-7.65 279.58-11.25L279.58-11.25Q281.03-9.95 281.58-8.35L281.58-8.35Q280.13-3.6 277.68-1.68 275.23 0.25 272.83 0.25ZM264.78-20.15L264.78-20.15Q261.58-20.15 259.7-17.73 257.83-15.3 257.48-10.5L257.48-10.5Q257.43-10.05 257.43-9.65L257.43-9.65Q257.43-7.2 258.6-5.75 259.78-4.3 261.63-4.3L261.63-4.3Q264.78-4.3 266.38-8.75L266.38-8.75 267.58-19.55Q266.13-20.15 264.78-20.15Z" opacity="1" transform="matrix(1,0,0,1,0,0)" fill="black" class="wordmark-text-0" id="SvgjsPath1181"></path></svg></g></svg></g></svg></g></svg></g></svg></g></svg></g></svg></g></svg></g><defs><mask></mask></defs></svg><rect width="395.52" height="247.2" fill="black" stroke="none" visibility="hidden"></rect></g></mask></svg><rect width="395.52" height="247.2" fill="black" stroke="none" visibility="hidden"></rect></g></mask><linearGradient x1="0" x2="1" y1="0.5" y2="0.5" id="ad76c226-3b3a-402e-9ffe-0496afacc8a5"><stop stop-color="#f00b51" offset="0"></stop><stop stop-color="#730062" offset="1"></stop></linearGradient></svg><rect width="395.52" height="247.2" fill="none" stroke="none" visibility="hidden"></rect></g></svg></g></svg>